<?xml version="1.0" standalone="no"?>
<!DOCTYPE svg PUBLIC "-//W3C//DTD SVG 20010904//EN"
 "http://www.w3.org/TR/2001/REC-SVG-20010904/DTD/svg10.dtd">
<svg version="1.0" xmlns="http://www.w3.org/2000/svg"
 width="512.000000pt" height="512.000000pt" viewBox="0 0 512.000000 512.000000"
 preserveAspectRatio="xMidYMid meet">
<metadata>
Created by potrace 1.14, written by Peter Selinger 2001-2017
</metadata>
<g transform="translate(0.000000,512.000000) scale(0.100000,-0.100000)"
fill="#000000" stroke="none">
<path d="M3360 4865 c-9 -11 -16 -12 -26 -4 -10 8 -12 6 -9 -11 3 -18 2 -20
-10 -10 -8 7 -12 17 -8 23 3 6 1 7 -6 3 -6 -4 -9 -11 -6 -16 3 -4 -9 -13 -26
-19 -17 -6 -28 -15 -24 -21 4 -6 -1 -7 -11 -3 -10 4 -15 2 -11 -4 3 -5 -1 -10
-9 -10 -9 0 -13 6 -9 16 5 12 3 13 -5 5 -6 -6 -12 -20 -13 -31 0 -13 -6 -19
-14 -16 -7 3 -11 8 -9 12 3 4 -4 7 -15 7 -18 0 -18 -2 -5 -12 21 -15 21 -28 0
-20 -8 3 -12 2 -9 -4 3 -6 1 -10 -5 -10 -6 0 -8 -5 -4 -12 5 -8 2 -8 -10 1 -9
8 -16 10 -15 5 4 -21 -2 -34 -16 -34 -8 0 -15 -5 -15 -11 0 -5 -4 -8 -8 -5 -4
2 -14 1 -22 -5 -12 -7 -12 -9 -1 -9 20 0 -35 -41 -58 -43 -13 -1 -17 -5 -11
-12 10 -12 -23 -48 -34 -38 -3 4 -6 -1 -6 -11 0 -11 -4 -14 -12 -10 -8 5 -9 2
-4 -11 5 -15 4 -16 -9 -5 -13 11 -14 10 -9 -5 5 -13 -2 -26 -27 -47 -19 -16
-26 -25 -15 -21 18 6 18 5 -1 -14 -11 -11 -23 -27 -26 -34 -4 -10 -11 -8 -27
11 l-21 25 12 -25 c18 -34 19 -49 5 -44 -8 3 -12 -4 -12 -18 1 -12 -4 -23 -11
-23 -6 0 -15 -3 -19 -7 -4 -5 -2 -8 5 -8 7 0 9 -5 6 -11 -5 -6 -12 -4 -21 8
-11 14 -13 15 -8 2 5 -16 -23 -36 -34 -24 -3 3 0 5 8 5 10 0 10 3 0 15 -17 21
-6 32 34 30 31 -2 34 0 25 16 -7 13 -5 20 8 28 14 7 8 9 -24 6 -29 -2 -43 1
-47 11 -4 11 -2 12 14 4 13 -7 21 -7 25 0 4 6 12 7 18 4 8 -5 8 -3 0 7 -14 14
-18 33 -5 25 7 -4 11 10 14 52 1 14 10 15 24 5 5 -5 1 0 -9 10 -11 9 -16 17
-13 17 4 0 2 10 -4 23 -9 17 -5 15 16 -8 l27 -30 -18 30 c-20 32 -29 79 -14
69 5 -3 9 2 9 10 0 19 11 20 30 4 12 -11 12 -10 1 4 -10 14 -9 18 6 27 10 6
13 11 7 11 -5 0 -16 -6 -24 -12 -7 -7 -5 -1 6 14 15 21 22 24 34 15 9 -7 8 -4
-2 9 -25 29 -22 41 5 18 22 -19 22 -19 5 2 -14 16 -15 23 -5 34 10 12 9 12 -5
1 -11 -8 -18 -9 -18 -3 0 6 5 14 10 17 6 4 8 11 4 16 -3 5 -10 7 -15 3 -5 -3
-9 -2 -8 3 5 28 -2 33 -18 14 -10 -12 -28 -23 -39 -23 -14 -2 -20 -7 -17 -16
4 -8 -3 -15 -16 -19 -12 -3 -20 -11 -18 -17 3 -7 -4 -13 -14 -13 -12 -1 -17 3
-13 9 5 7 2 8 -5 3 -9 -5 -10 -10 -2 -18 7 -7 3 -17 -15 -34 -27 -25 -40 -30
-27 -10 10 16 14 41 5 32 -4 -4 -8 -11 -8 -16 -1 -5 -3 -12 -4 -16 -4 -13 -7
-27 -8 -42 -2 -11 -5 -11 -19 0 -9 8 -14 9 -10 2 9 -14 -2 -43 -15 -43 -6 0
-4 8 3 18 13 15 12 16 -4 3 -10 -8 -16 -20 -13 -28 4 -9 1 -11 -6 -7 -8 5 -9
2 -5 -10 4 -10 3 -15 -3 -11 -9 6 -14 -7 -11 -27 0 -4 -7 -4 -16 -1 -12 5 -15
2 -10 -10 4 -12 2 -14 -10 -10 -11 4 -14 2 -9 -5 4 -7 1 -12 -8 -12 -8 0 -18
-4 -21 -10 -4 -6 1 -7 12 -3 16 6 16 5 4 -10 -7 -9 -18 -14 -25 -10 -6 4 -5
-1 3 -10 12 -15 12 -17 -2 -11 -11 4 -21 -5 -33 -28 -9 -18 -21 -36 -26 -39
-6 -4 -6 -9 1 -13 6 -4 11 -2 11 3 0 6 5 11 10 11 6 0 3 -11 -7 -24 -10 -13
-22 -21 -27 -18 -5 3 -6 -3 -3 -12 6 -14 3 -17 -9 -12 -14 5 -15 4 -4 -9 9
-11 9 -15 1 -15 -7 0 -9 -5 -6 -10 4 -6 2 -16 -3 -23 -6 -7 -11 -16 -13 -22
-9 -39 -13 -45 -28 -45 -9 0 -12 -3 -6 -8 6 -4 9 -18 7 -32 -1 -14 -4 -32 -5
-41 -1 -9 -7 -14 -14 -12 -10 4 -11 9 -2 19 6 7 7 19 3 25 -5 8 -3 9 6 4 8 -5
11 -4 6 3 -4 6 -14 8 -22 5 -12 -4 -13 -8 -3 -14 10 -6 10 -11 1 -22 -10 -12
-10 -18 2 -30 18 -17 11 -28 -12 -21 -10 3 -6 -2 8 -10 14 -8 19 -15 12 -16
-7 0 -10 -5 -6 -12 4 -7 3 -8 -5 -4 -6 4 -8 13 -4 19 4 7 -2 5 -13 -3 -29 -22
-30 -24 -12 -17 10 3 19 0 22 -9 8 -21 8 -24 -5 -24 -5 0 -8 4 -5 8 3 5 -1 9
-8 9 -8 0 -13 -7 -11 -16 1 -9 11 -16 24 -15 16 1 19 -2 11 -11 -6 -7 -9 -18
-8 -25 2 -7 -3 -15 -11 -17 -10 -4 -11 0 -6 17 4 14 3 20 -3 16 -5 -3 -12 -17
-14 -30 -4 -18 -1 -23 10 -18 9 3 13 1 9 -5 -4 -6 -4 -13 0 -16 5 -2 2 -2 -4
-1 -7 2 -13 -1 -13 -6 0 -6 -3 -9 -8 -7 -8 2 -12 -6 -12 -25 0 -9 3 -9 9 1 5
8 20 16 33 17 13 2 17 0 11 -2 -7 -3 -13 -12 -13 -20 0 -8 -4 -14 -8 -14 -5 0
-9 -7 -10 -15 -1 -8 -3 -22 -4 -30 -1 -8 -7 -16 -14 -19 -9 -3 -11 1 -7 11 5
12 3 14 -8 8 -11 -6 -12 -5 -1 6 15 16 16 33 2 24 -6 -4 -9 -3 -8 2 1 4 -4 19
-11 32 -7 13 -8 21 -3 17 6 -4 10 2 9 14 -1 20 -17 29 -17 9 0 -5 -5 -7 -11
-3 -8 5 -8 9 1 14 6 4 11 10 11 14 -3 21 0 49 4 44 6 -6 16 -44 17 -66 1 -8 5
-9 11 -3 7 7 6 15 -1 24 -6 7 -8 18 -4 23 4 5 6 8 3 7 -2 -1 -12 8 -23 20 -11
12 -17 16 -13 10 3 -7 1 -13 -5 -13 -7 0 -10 6 -7 14 3 8 3 17 -1 20 -13 14
-10 35 5 29 9 -4 11 -8 4 -12 -6 -4 -3 -11 8 -18 11 -7 23 -8 32 -2 11 8 10 9
-6 7 -11 -2 -20 2 -20 7 0 6 -10 24 -23 42 -14 19 -18 34 -12 38 9 6 14 0 12
-16 -1 -4 9 -15 21 -25 l22 -19 -20 24 c-11 13 -19 25 -17 27 1 2 1 6 1 9 -5
19 -3 31 4 36 6 4 0 10 -11 13 -23 8 -33 28 -22 45 5 10 9 9 13 -4 5 -10 3
-14 -5 -9 -7 4 -8 3 -4 -4 9 -15 11 -15 27 5 10 11 10 14 2 9 -8 -4 -13 -1
-13 9 0 10 5 13 13 9 10 -7 -5 18 -23 36 -18 18 -32 41 -24 39 29 -5 37 2 18
17 -13 11 -14 14 -3 11 9 -3 16 1 16 8 0 8 -5 13 -11 12 -6 -1 -10 3 -9 10 3
15 -24 10 -40 -7 -10 -12 -9 -12 6 -1 12 9 17 10 17 2 0 -6 -7 -14 -15 -17 -8
-4 -15 -12 -15 -20 0 -8 -5 -14 -11 -14 -5 0 -7 -5 -4 -10 4 -6 1 -9 -6 -8 -6
2 -14 -3 -17 -11 -3 -9 0 -11 9 -7 8 4 1 -4 -15 -18 -17 -14 -34 -22 -39 -19
-6 3 -7 1 -3 -5 3 -6 -2 -16 -11 -22 -15 -10 -16 -11 -1 -6 21 6 44 -19 27
-30 -8 -4 -9 -3 -5 4 4 7 2 12 -5 12 -7 0 -9 -9 -6 -22 6 -22 6 -22 -8 -4 -17
23 -20 14 -5 -14 7 -13 7 -21 -2 -26 -6 -4 -8 -3 -4 4 3 6 2 13 -3 17 -11 6
-7 -27 5 -47 5 -7 3 -8 -6 -3 -10 6 -12 4 -7 -9 4 -10 1 -19 -8 -23 -12 -4
-13 -9 -5 -18 8 -10 8 -15 0 -20 -6 -4 -9 -13 -7 -20 3 -6 -5 -24 -17 -38 -18
-21 -25 -24 -36 -14 -12 10 -12 9 -2 -4 7 -9 10 -23 7 -31 -4 -9 1 -18 12 -22
14 -6 15 -5 6 5 -14 14 0 49 20 49 8 0 9 -3 1 -8 -6 -4 -10 -24 -10 -45 1 -21
-4 -43 -10 -48 -9 -7 -12 -3 -10 15 2 14 -1 23 -5 20 -11 -6 -7 -32 9 -61 7
-13 9 -23 5 -23 -4 0 1 -7 11 -15 19 -14 10 -21 -19 -15 -5 1 -1 -7 8 -18 14
-15 15 -22 6 -28 -9 -5 -7 -11 6 -21 11 -7 13 -13 6 -13 -6 0 -11 -6 -9 -12 1
-7 -4 -24 -12 -38 -12 -22 -12 -24 2 -12 13 10 18 9 29 -5 13 -16 12 -17 -3
-5 -14 11 -17 8 -23 -28 -4 -24 -11 -38 -17 -33 -7 3 -8 1 -4 -5 4 -6 13 -9
21 -6 8 4 12 10 9 15 -3 5 0 17 6 26 9 16 10 15 5 -4 -4 -15 -2 -23 5 -23 7 0
2 -9 -11 -19 -13 -11 -21 -23 -16 -27 4 -4 13 -2 20 6 10 10 9 11 -2 5 -9 -5
-12 -4 -7 3 10 16 23 15 30 -3 3 -8 0 -14 -6 -12 -6 1 -12 -8 -13 -21 -1 -18
2 -21 18 -16 13 4 17 2 13 -5 -4 -6 -16 -11 -26 -11 -10 0 -21 -4 -24 -8 -3
-4 8 -7 25 -6 16 1 26 -2 23 -7 -3 -5 -10 -7 -15 -4 -5 4 -17 1 -26 -5 -16
-10 -16 -10 2 -6 11 3 27 1 35 -5 13 -9 13 -10 -1 -6 -13 4 -16 0 -12 -16 4
-18 3 -19 -7 -7 -10 13 -11 13 -7 0 2 -8 10 -14 16 -12 6 1 11 -2 11 -8 0 -5
-7 -10 -15 -10 -8 0 -15 -4 -15 -10 0 -5 7 -7 15 -4 11 5 13 2 9 -10 -3 -9 -1
-16 4 -16 6 0 9 9 7 20 -2 13 0 18 7 14 6 -4 6 1 -1 14 -15 28 -14 35 3 20 14
-14 15 -25 3 -45 -4 -6 -3 -14 2 -17 5 -4 11 -1 13 6 3 7 7 8 11 2 3 -5 -3
-16 -15 -23 -15 -9 -18 -10 -13 0 5 8 4 10 -4 5 -6 -4 -8 -12 -5 -18 5 -7 2
-9 -7 -6 -8 3 -23 0 -34 -8 -10 -8 -14 -14 -8 -14 7 0 15 4 18 10 8 13 60 -14
68 -35 4 -8 4 -21 1 -29 -4 -11 1 -14 20 -12 14 2 23 -1 20 -6 -3 -5 -13 -7
-21 -4 -9 4 -13 1 -10 -6 2 -7 13 -12 23 -10 13 2 9 -3 -11 -16 -16 -11 -32
-17 -35 -14 -3 2 1 7 8 9 16 6 16 25 -1 21 -6 -2 -22 7 -34 19 -17 17 -19 23
-7 27 8 3 14 13 14 23 -1 17 -1 17 -11 1 -12 -21 -29 -24 -29 -4 0 8 -7 16
-15 20 -8 3 -12 12 -9 20 3 8 1 17 -5 21 -6 3 -11 0 -11 -7 0 -10 -2 -10 -9 1
-5 8 -7 21 -3 29 4 11 1 13 -8 7 -8 -5 -11 -4 -7 2 4 6 0 14 -9 17 -13 5 -14
9 -4 21 11 13 10 14 -4 9 -16 -6 -21 4 -17 35 2 7 -2 10 -7 7 -6 -3 -12 1 -15
9 -4 10 -1 12 11 9 12 -4 11 -2 -3 7 -24 15 -38 36 -42 64 -2 16 -1 17 6 5 5
-8 7 -18 4 -24 -3 -5 -1 -6 5 -3 13 9 4 47 -12 47 -6 0 -4 5 4 10 8 5 10 10 5
10 -6 0 -17 -6 -24 -12 -11 -10 -13 -10 -7 0 4 6 3 12 -3 12 -6 0 -8 7 -4 15
3 9 -2 22 -13 31 -18 14 -18 14 1 8 20 -7 20 -7 0 9 -20 16 -40 13 -30 -4 4
-5 -1 -9 -10 -9 -10 0 -13 -5 -9 -12 4 -7 4 -10 -1 -6 -4 4 -13 1 -19 -8 -10
-13 -12 -13 -12 5 0 11 3 18 7 15 10 -6 25 18 27 43 0 13 -4 25 -9 29 -6 3 -8
-5 -5 -20 3 -14 1 -28 -4 -31 -5 -3 -7 4 -5 15 2 11 0 20 -4 20 -4 0 -7 12 -6
28 1 15 7 26 13 25 6 -2 9 4 6 12 -4 8 -10 13 -14 10 -4 -2 -7 6 -7 18 -1 40
-3 48 -11 43 -5 -3 -8 15 -7 39 1 25 -1 45 -5 45 -4 0 -10 6 -13 13 -3 8 1 14
9 14 7 0 10 -5 7 -10 -3 -6 -1 -7 6 -3 6 4 9 11 6 16 -3 5 0 10 7 13 7 2 3 2
-9 0 -18 -2 -21 0 -16 14 4 10 11 22 17 26 6 5 1 5 -11 2 -14 -4 -23 -2 -23 4
0 6 6 11 14 11 9 0 12 7 9 20 -3 11 -9 20 -13 20 -4 0 -12 12 -18 26 -7 14 -9
23 -4 20 4 -2 19 4 32 14 22 17 22 18 5 17 -11 -1 -23 -6 -26 -11 -4 -4 -10
-3 -13 3 -4 6 -4 11 1 12 24 2 46 8 51 15 4 4 -1 4 -10 1 -25 -9 -22 7 4 27
13 9 17 14 9 10 -22 -11 -61 -13 -61 -3 0 5 4 9 9 9 5 0 11 6 14 13 2 6 3 4 1
-6 -1 -9 2 -14 7 -11 6 3 9 13 7 22 -1 10 1 22 5 29 4 6 3 14 -3 18 -20 12
-10 24 17 19 15 -3 25 -3 22 1 -12 11 -53 15 -59 4 -4 -5 -6 8 -6 29 1 28 5
38 14 35 9 -4 9 -9 2 -18 -8 -9 -6 -14 6 -19 9 -4 19 -4 22 -1 3 3 0 5 -6 5
-7 0 -12 5 -12 11 0 5 4 8 8 5 11 -7 9 50 -2 61 -5 5 -7 1 -3 -9 9 -24 -8 -31
-24 -11 -12 14 -12 16 0 8 11 -6 13 -4 8 9 -4 10 -3 15 3 11 6 -3 13 1 16 9 3
9 11 13 17 9 6 -3 7 -1 3 6 -6 9 -11 9 -22 0 -12 -10 -13 -9 -8 5 3 9 0 24 -7
33 -9 11 -2 8 19 -6 33 -23 33 -23 21 -2 -8 11 -17 21 -22 21 -4 0 -5 5 -2 10
3 6 1 10 -6 10 -7 0 -9 3 -5 7 4 4 17 -4 29 -18 12 -13 19 -20 15 -15 -3 4 -4
15 -1 24 5 10 2 13 -6 8 -9 -6 -12 -2 -11 10 4 33 0 45 -10 39 -6 -3 -7 1 -4
9 3 9 11 16 16 16 6 0 5 7 -2 16 -11 12 -11 15 -1 12 8 -2 15 5 16 15 2 9 -2
17 -8 17 -5 0 -8 3 -5 6 4 3 15 1 26 -5 17 -9 19 -7 17 17 -1 22 -6 27 -26 25
-21 -2 -22 -1 -7 8 12 6 24 7 36 0 14 -8 18 -5 19 12 2 16 0 18 -6 8 -7 -11
-13 -11 -27 -1 -16 10 -16 11 -1 6 12 -4 17 0 17 14 0 11 5 20 11 20 5 0 7 -5
3 -12 -5 -7 -3 -8 6 -3 10 6 8 12 -9 27 -14 11 -18 18 -10 18 10 1 8 5 -5 15
-18 13 -18 14 2 12 13 -1 19 -7 17 -18 -3 -13 1 -16 12 -12 10 4 14 2 10 -4
-3 -5 1 -10 10 -10 14 0 13 3 -3 16 -22 18 -33 58 -13 45 8 -4 10 -3 5 5 -6 9
-11 9 -21 1 -10 -8 -15 -8 -21 1 -4 7 -3 10 2 7 5 -3 15 0 22 8 8 9 9 14 2 14
-6 0 -8 5 -5 10 3 6 -1 10 -9 10 -10 0 -13 -6 -9 -17 6 -16 5 -17 -12 -3 -11
9 -16 10 -11 3 4 -7 3 -13 -3 -13 -6 0 -8 -7 -5 -15 4 -10 0 -15 -11 -15 -10
0 -13 5 -9 12 4 7 3 8 -4 4 -9 -5 -9 -13 -2 -26 9 -16 8 -18 -6 -13 -13 5 -15
3 -9 -7 6 -10 4 -12 -11 -6 -15 5 -16 4 -7 -5 17 -17 -7 -41 -26 -25 -12 9
-12 8 -2 -11 10 -19 9 -23 -4 -23 -8 0 -15 -5 -15 -11 0 -5 5 -7 11 -4 6 4 5
-2 -2 -13 -11 -17 -16 -19 -28 -9 -12 10 -13 9 -1 -13 13 -24 12 -24 -6 -10
-10 8 -16 10 -12 6 4 -5 2 -16 -5 -24 -8 -10 -8 -13 -1 -9 7 4 14 0 17 -7 4
-10 0 -14 -13 -11 -13 2 -17 -1 -14 -10 3 -7 -1 -24 -10 -37 -8 -13 -15 -27
-15 -33 0 -5 -9 -12 -21 -15 -12 -3 -21 -9 -21 -15 -1 -5 -5 -15 -10 -22 -7
-7 -6 -13 0 -17 10 -7 11 -45 1 -44 -18 2 -30 -3 -30 -13 0 -5 4 -8 9 -4 5 3
12 1 15 -4 4 -5 1 -13 -5 -16 -5 -4 -8 -13 -5 -21 3 -8 0 -11 -10 -7 -11 4
-12 9 -3 19 7 9 8 14 1 14 -16 0 -22 -26 -9 -40 9 -10 7 -11 -13 -5 l-25 7 23
-17 c17 -12 20 -20 13 -29 -6 -7 -8 -16 -4 -19 3 -4 1 -7 -6 -7 -7 0 -10 -4
-6 -9 3 -5 1 -12 -4 -16 -5 -3 -8 -15 -6 -28 4 -21 4 -21 -10 -3 -12 16 -12
21 -2 28 6 4 12 17 12 28 0 11 7 25 15 30 12 7 11 9 -6 8 -16 -2 -20 -8 -19
-28 1 -14 -3 -28 -9 -32 -12 -8 -16 -49 -4 -42 4 3 8 -2 8 -11 0 -11 -5 -15
-15 -12 -8 4 -17 1 -21 -5 -5 -7 -2 -8 6 -3 10 6 12 4 6 -10 -5 -14 -4 -16 8
-6 11 9 13 6 12 -19 0 -16 -4 -30 -8 -30 -5 0 -8 -9 -8 -21 0 -11 -4 -18 -8
-15 -4 2 -14 0 -22 -6 -12 -8 -11 -9 4 -4 13 5 17 2 13 -8 -3 -8 -1 -17 6 -20
7 -2 4 -5 -6 -5 -10 -1 -15 -6 -12 -11 4 -6 1 -18 -6 -26 -10 -12 -8 -17 7
-29 18 -13 18 -14 2 -20 -10 -4 -15 -11 -12 -16 3 -5 11 -6 17 -2 8 5 8 2 0
-9 -7 -8 -10 -18 -6 -21 3 -4 1 -7 -6 -7 -14 0 -11 -31 4 -42 5 -4 6 -10 2
-15 -9 -8 -28 17 -21 28 2 4 -1 11 -7 15 -7 4 -9 3 -5 -4 3 -5 0 -13 -6 -15
-10 -4 -10 -6 0 -6 7 -1 10 -5 7 -11 -3 -5 -2 -10 4 -10 10 0 9 -19 -2 -37 -5
-7 -5 -13 0 -14 4 0 -1 -5 -12 -10 l-20 -9 20 3 c11 2 19 9 17 16 -1 7 2 10 7
6 6 -3 8 3 6 15 -2 11 0 18 5 15 9 -6 8 -24 -3 -42 -5 -7 -5 -17 -2 -23 4 -6
-1 -7 -12 -4 -13 4 -11 0 7 -17 14 -12 18 -20 10 -17 -8 3 -24 2 -35 -3 -18
-7 -18 -8 -2 -8 10 -1 16 -5 12 -11 -3 -5 3 -18 13 -28 15 -15 16 -22 8 -35
-8 -10 -17 -12 -28 -6 -11 6 -19 5 -24 -3 -4 -7 -3 -10 1 -5 5 4 19 0 33 -9
13 -9 22 -11 18 -6 -3 6 -2 13 3 16 7 5 8 -22 1 -31 -2 -2 -3 -11 -4 -20 -2
-30 -15 -41 -39 -37 -20 4 -20 4 3 -6 20 -9 22 -13 10 -20 -11 -7 -12 -10 -2
-10 7 0 10 -5 7 -10 -5 -8 -11 -7 -21 1 -7 6 -11 16 -7 22 3 6 1 7 -6 3 -8 -6
-9 -12 -2 -20 6 -7 8 -15 5 -19 -3 -3 2 -4 13 -2 10 2 22 4 27 4 4 1 5 8 2 17
-3 8 -2 12 4 9 5 -3 7 4 5 15 -4 21 9 28 20 10 3 -5 2 -10 -3 -10 -5 0 -9 -7
-9 -15 0 -9 6 -14 14 -11 8 3 11 1 8 -4 -3 -6 -13 -10 -21 -10 -8 0 -12 -5 -9
-10 4 -6 11 -7 17 -4 7 4 8 2 4 -5 -4 -6 -11 -9 -16 -6 -4 3 -11 -2 -14 -11
-3 -8 -2 -12 4 -9 5 3 16 2 24 -2 12 -7 12 -11 -1 -28 -15 -20 -15 -20 -8 3 4
13 2 22 -4 22 -10 0 -15 -14 -12 -33 1 -5 -3 -6 -8 -3 -5 3 -8 17 -6 31 2 22
0 23 -14 13 -9 -7 -13 -8 -9 -4 11 13 -12 37 -26 29 -6 -4 -5 0 2 9 11 14 10
18 -6 27 -14 7 -18 17 -15 31 3 11 9 18 12 15 4 -2 8 2 8 10 0 13 -4 12 -19
-2 -20 -18 -25 -5 -5 16 10 11 9 13 -6 8 -12 -5 -16 -3 -11 5 5 7 2 9 -8 5
-12 -4 -15 1 -14 24 1 18 -3 29 -11 29 -7 0 -13 5 -13 11 0 5 4 7 10 4 6 -3 7
1 4 9 -6 15 -18 20 -37 17 -5 -1 -6 3 -2 9 3 6 10 8 15 5 5 -3 12 0 16 6 4 8
3 9 -4 5 -7 -4 -12 -2 -12 3 0 6 5 11 11 11 5 0 7 5 4 11 -5 6 -12 4 -20 -8
-7 -10 -17 -15 -21 -10 -4 4 -2 7 5 7 8 0 5 9 -8 26 -16 20 -18 31 -10 51 9
23 8 25 -6 13 -9 -7 -15 -9 -14 -4 1 5 1 22 0 38 -1 21 -5 27 -17 22 -8 -3
-12 -2 -9 4 3 6 12 10 20 10 8 0 17 4 20 10 3 6 -1 7 -10 4 -19 -8 -46 13 -39
31 3 7 1 16 -4 19 -5 3 -7 18 -4 32 3 18 1 25 -6 20 -7 -4 -8 3 -2 24 5 17 5
28 0 25 -14 -9 -21 27 -8 44 9 11 6 10 -9 -3 -22 -18 -22 -18 -19 1 4 18 -8
22 -43 14 -2 -1 3 -9 10 -18 13 -15 12 -16 -8 -11 -13 4 -26 1 -30 -4 -3 -6
-2 -8 3 -5 6 3 16 2 24 -4 10 -6 11 -9 3 -9 -7 0 -13 -5 -13 -11 0 -5 6 -7 12
-3 7 5 1 -8 -13 -27 -14 -18 -25 -42 -23 -51 1 -10 -1 -18 -5 -18 -14 0 -8
-35 11 -54 22 -24 16 -35 -7 -12 -18 17 -30 21 -21 7 4 -5 3 -11 -1 -14 -5 -2
-3 -3 3 -1 6 1 15 -11 21 -27 8 -21 8 -27 0 -22 -6 4 -8 0 -4 -10 8 -21 -20
-31 -31 -10 -8 14 -10 14 -15 -1 -4 -9 -3 -15 1 -15 4 1 12 0 17 -1 6 -1 16
-3 22 -4 7 0 13 -5 12 -11 0 -5 -7 -9 -14 -7 -10 2 -13 -3 -9 -13 3 -8 10 -12
15 -9 5 3 9 0 9 -5 0 -14 -12 -14 -28 -1 -6 6 -10 7 -7 4 3 -4 -1 -14 -8 -23
-11 -14 -10 -14 6 -2 15 12 17 11 17 -2 0 -9 -5 -19 -10 -22 -8 -5 -8 -11 0
-20 8 -9 8 -15 0 -20 -15 -9 -2 -25 15 -18 11 4 13 1 9 -11 -3 -9 -10 -14 -14
-11 -5 3 -7 -3 -5 -12 1 -10 -3 -24 -9 -32 -8 -11 -8 -13 0 -8 7 4 15 0 18 -8
3 -9 -1 -18 -9 -21 -8 -4 -15 -10 -15 -16 0 -5 5 -6 11 -3 6 4 13 -2 16 -14 3
-11 10 -18 15 -15 5 4 3 13 -5 22 -13 15 -12 19 6 37 l20 20 -12 -23 c-9 -17
-9 -27 -1 -37 8 -10 4 -18 -17 -34 -20 -15 -22 -19 -8 -14 18 6 18 5 6 -10 -8
-10 -11 -20 -7 -24 3 -3 6 -1 6 6 0 7 4 10 9 6 6 -3 8 4 6 15 -2 11 0 20 6 20
5 0 7 -11 5 -24 -2 -14 1 -27 7 -29 6 -2 3 -6 -7 -10 -11 -5 -15 -3 -10 5 4 6
3 8 -3 5 -13 -8 -10 -42 6 -61 7 -9 18 -13 24 -9 5 3 7 1 3 -5 -3 -6 -2 -14 4
-17 8 -5 8 -11 1 -19 -6 -7 -9 -15 -7 -17 10 -10 14 -59 5 -54 -5 4 -6 12 -3
18 4 8 2 7 -7 -1 -12 -11 -12 -14 0 -21 8 -5 11 -16 8 -24 -4 -10 1 -13 17
-12 14 2 23 -3 23 -11 0 -10 -4 -11 -14 -2 -10 8 -13 6 -10 -10 2 -12 7 -25
12 -29 4 -5 5 -1 0 7 -5 8 -5 12 0 8 4 -4 15 -2 24 4 11 9 10 5 -2 -9 -11 -12
-16 -26 -13 -32 4 -5 -2 -14 -11 -20 -11 -6 -13 -11 -5 -11 8 0 10 -5 6 -12
-5 -9 -3 -9 9 1 9 7 14 17 11 22 -3 5 0 9 6 9 8 0 9 -7 5 -17 -9 -22 -15 -76
-8 -69 3 3 12 -1 20 -9 11 -11 12 -19 2 -36 -7 -15 -8 -19 0 -15 6 4 11 2 11
-3 0 -6 -6 -11 -14 -11 -8 0 -18 -4 -21 -10 -3 -5 0 -7 8 -4 8 3 18 1 22 -5 3
-6 1 -11 -5 -11 -6 0 -8 -6 -4 -12 4 -7 -7 0 -24 16 -25 23 -29 32 -20 43 9
11 13 12 20 1 6 -8 7 -5 3 11 -5 17 -4 22 5 16 9 -6 11 -4 5 5 -6 10 -11 10
-20 -3 -7 -9 -16 -13 -20 -9 -5 4 -5 1 -1 -5 4 -8 1 -13 -9 -13 -9 0 -14 4
-10 9 3 5 -4 12 -15 16 -15 5 -18 10 -11 24 7 13 6 18 -4 18 -8 0 -12 -4 -9
-9 3 -4 -1 -5 -9 -2 -7 2 -14 11 -15 19 -1 8 -3 21 -4 29 -1 8 -7 12 -14 9 -6
-2 -15 1 -20 8 -5 8 -3 10 6 4 9 -5 11 -4 6 3 -4 7 -16 12 -26 12 -14 0 -18 5
-13 17 5 12 3 14 -8 8 -8 -5 -5 2 6 14 11 12 14 21 7 19 -6 -2 -23 11 -38 27
l-26 30 26 -37 c15 -21 23 -38 18 -38 -5 0 -15 11 -22 25 -7 14 -17 25 -22 25
-4 0 -8 12 -8 26 0 19 -4 25 -15 21 -19 -8 -30 12 -16 26 9 9 11 7 6 -8 -5
-16 -5 -17 3 -5 12 15 6 33 -8 25 -16 -10 -22 15 -8 32 11 14 11 16 -2 8 -23
-14 -45 -16 -32 -3 8 8 7 15 -6 25 -11 9 -12 12 -2 7 8 -4 12 -4 8 1 -4 4 -3
14 3 22 9 9 8 13 0 13 -6 0 -11 -4 -11 -10 0 -5 -8 -10 -17 -10 -15 0 -15 2
-4 9 11 7 10 10 -5 13 -17 4 -16 6 6 16 16 7 19 11 9 11 -9 1 -22 8 -29 16
-15 18 -35 20 -24 3 4 -7 3 -8 -5 -4 -8 5 -9 12 -2 20 7 8 6 17 -1 26 -8 12
-9 11 -4 -4 5 -15 4 -17 -8 -7 -11 9 -15 8 -20 -4 -3 -8 0 -15 7 -15 7 0 3 -7
-7 -15 -11 -8 -14 -15 -8 -15 7 0 12 -4 12 -10 0 -5 -8 -7 -17 -3 -14 5 -13 1
5 -16 27 -27 28 -35 2 -21 -11 6 -20 9 -21 8 -6 -24 -5 -37 2 -32 5 3 6 10 3
16 -4 7 -2 8 4 4 6 -4 8 -14 5 -23 -4 -10 -2 -14 4 -10 7 4 10 0 9 -10 -2 -11
-11 -18 -24 -17 -12 1 -19 -3 -16 -7 3 -5 10 -7 15 -4 5 4 9 1 9 -5 0 -6 4 -9
9 -5 5 3 12 1 15 -4 4 -5 2 -12 -3 -15 -5 -4 -12 -2 -16 4 -3 5 -12 10 -18 10
-8 0 -7 -3 2 -9 8 -5 11 -16 7 -26 -6 -16 -4 -16 11 -4 15 12 16 12 11 -2 -4
-9 1 -27 9 -40 9 -12 11 -19 5 -15 -13 8 -17 -6 -5 -18 15 -14 10 -37 -10 -52
-22 -15 -22 -15 7 -10 16 3 26 2 22 -1 -3 -3 0 -13 6 -22 8 -10 4 -9 -10 3
-19 16 -22 17 -22 3 0 -8 4 -17 10 -19 5 -1 12 -18 14 -36 2 -23 0 -32 -9 -29
-6 3 -12 -1 -12 -8 0 -7 8 -10 18 -8 16 5 32 -10 35 -35 1 -6 -2 -10 -7 -6 -5
3 -9 -5 -9 -17 0 -18 -3 -20 -12 -11 -9 9 -8 16 6 31 14 15 14 20 3 24 -8 3
-20 2 -27 -3 -10 -6 -9 -9 1 -12 11 -4 12 -8 1 -20 -10 -13 -9 -17 5 -23 19
-8 29 -11 53 -14 13 -1 13 -3 1 -10 -8 -5 -20 -7 -26 -5 -7 3 -15 -2 -19 -12
-5 -14 -4 -15 9 -4 9 8 15 9 15 2 0 -6 -7 -15 -16 -20 -11 -6 -13 -11 -5 -16
6 -4 11 -3 11 3 0 13 30 7 40 -9 13 -21 1 -38 -23 -32 -12 3 -19 2 -16 -1 3
-4 14 -8 25 -10 27 -4 42 -15 55 -40 7 -12 8 -19 4 -15 -5 4 -15 2 -24 -4 -13
-10 -14 -10 -3 2 6 8 12 19 12 25 -1 12 -30 -25 -30 -38 0 -4 9 -6 20 -2 16 5
19 3 13 -12 -6 -16 -5 -17 13 -3 18 14 18 14 4 -5 -8 -11 -19 -23 -25 -27 -6
-5 -5 -8 2 -8 7 0 11 -6 9 -12 -1 -7 -1 -10 1 -5 3 4 11 7 19 7 8 0 14 5 14
12 0 6 2 9 5 6 10 -10 -21 -54 -35 -50 -8 2 -2 -5 13 -16 16 -11 28 -22 28
-26 -3 -25 -1 -30 11 -18 15 15 28 15 28 1 0 -5 -4 -7 -10 -4 -5 3 -10 2 -10
-4 0 -5 -8 -12 -17 -14 -16 -4 -16 -5 -2 -6 9 0 20 -8 23 -17 5 -12 2 -15 -11
-10 -17 6 -17 5 0 -8 9 -7 28 -12 42 -10 16 1 23 -2 18 -9 -4 -7 0 -8 13 -3
15 6 16 5 7 -5 -9 -9 -15 -9 -26 0 -11 9 -17 8 -27 -3 -10 -13 -8 -15 9 -11
23 4 49 -29 31 -40 -6 -4 -8 -11 -4 -16 3 -5 10 -7 15 -4 13 9 11 -9 -3 -24
-11 -11 -9 -11 9 0 21 12 21 14 6 32 -15 16 -15 17 -1 12 9 -4 19 -13 22 -21
3 -9 10 -12 16 -9 5 3 10 3 11 -2 4 -44 23 -68 43 -56 5 4 6 1 0 -8 -4 -8 -10
-22 -11 -33 -3 -15 0 -16 11 -7 10 9 16 8 26 -4 7 -8 16 -12 21 -9 5 3 9 0 9
-5 0 -16 -11 -14 -32 6 -17 15 -18 15 -18 0 0 -10 5 -17 11 -17 5 0 7 -4 4
-10 -3 -5 0 -7 8 -4 10 4 14 -2 12 -20 -2 -18 1 -23 12 -19 12 5 12 7 1 14 -7
5 -8 9 -2 9 18 0 24 -12 13 -26 -7 -8 -6 -14 2 -20 8 -4 9 -3 5 4 -4 7 -2 12
4 12 7 0 9 -12 7 -29 -4 -22 -2 -28 9 -24 8 3 17 -2 20 -11 3 -9 13 -16 21
-16 8 0 11 -5 7 -12 -5 -7 -3 -8 6 -3 10 6 9 11 -4 21 -9 6 -13 14 -9 16 4 3
2 3 -5 1 -8 -1 -10 2 -6 9 5 7 3 8 -6 3 -9 -5 -11 -4 -6 4 6 9 13 9 29 -2 24
-16 31 -46 14 -66 -9 -12 -9 -13 1 -7 6 4 12 3 12 -2 0 -5 7 -9 16 -9 14 0 14
2 -2 14 -10 7 -12 13 -5 13 7 0 10 4 7 8 -3 5 1 9 9 9 7 0 12 -8 10 -17 -4
-21 17 -64 29 -61 5 2 13 -3 18 -11 8 -10 9 -10 5 2 -2 8 -9 15 -15 15 -5 0
-14 4 -19 9 -5 5 -3 6 4 2 7 -4 13 -3 13 3 0 5 -5 11 -12 13 -8 3 -6 7 5 11 9
3 16 3 16 -1 -3 -20 2 -32 11 -27 6 4 10 3 9 -2 -4 -23 2 -35 16 -29 10 3 20
-5 30 -24 18 -35 22 -36 48 -13 19 18 19 17 6 -4 -8 -13 -19 -23 -26 -23 -7 0
-13 -5 -13 -11 0 -5 6 -7 13 -3 6 4 8 3 4 -1 -4 -5 -22 -10 -39 -11 -18 -2
-27 0 -22 4 13 8 15 44 2 36 -5 -3 -6 -10 -2 -15 3 -6 -6 -7 -23 -4 -15 4 -35
8 -43 9 -31 6 -50 19 -51 35 0 12 -2 12 -9 -4 -7 -15 -9 -16 -9 -4 -1 9 -10
19 -21 22 -12 3 -18 1 -14 -5 4 -6 -3 -5 -15 1 -11 7 -21 17 -21 24 0 8 -3 8
-9 -1 -7 -11 -9 -10 -14 3 -4 9 -12 15 -19 14 -20 -3 -49 12 -42 22 3 5 -7 9
-23 9 -22 0 -25 2 -13 10 12 8 11 10 -7 10 -13 0 -23 6 -23 13 0 8 -4 7 -10
-3 -8 -13 -10 -12 -10 3 0 9 5 17 12 17 6 0 8 3 5 6 -4 4 -13 1 -21 -5 -12
-10 -16 -8 -21 8 -3 12 -10 21 -15 21 -5 0 -6 -8 -3 -17 5 -14 3 -13 -14 3
-11 10 -18 22 -16 27 2 4 -3 7 -11 7 -9 0 -16 5 -16 10 0 6 -8 10 -18 10 -9 0
-32 16 -50 35 -18 20 -37 33 -42 30 -6 -3 -10 -2 -10 4 0 5 6 12 13 15 6 3 2
3 -10 0 -16 -4 -23 -1 -23 9 0 7 -7 14 -15 14 -12 0 -12 -3 -2 -16 10 -12 9
-14 -6 -8 -16 6 -15 3 4 -25 13 -17 17 -28 9 -23 -10 6 -12 4 -7 -8 4 -12 2
-14 -11 -10 -14 5 -15 4 -6 -8 14 -18 14 -49 0 -49 -5 0 -1 -6 9 -14 11 -8 26
-11 34 -8 10 4 13 1 8 -11 -4 -10 0 -20 11 -26 9 -6 12 -11 5 -11 -7 0 -10 -7
-7 -17 5 -15 4 -15 -4 -3 -6 8 -8 18 -6 22 3 4 0 8 -6 8 -7 0 -9 7 -6 16 3 9
2 12 -5 9 -5 -4 -18 -1 -27 7 -15 11 -15 11 -5 -3 7 -9 9 -19 5 -23 -4 -4 -1
-6 7 -4 7 2 16 -3 18 -9 3 -7 -1 -13 -9 -13 -7 0 2 -9 19 -20 18 -11 33 -25
33 -32 0 -9 -3 -9 -12 0 -7 7 -16 12 -21 12 -5 0 5 -12 22 -26 17 -14 29 -30
26 -34 -3 -5 4 -14 16 -21 17 -9 23 -8 30 2 7 11 9 11 9 1 0 -7 4 -11 9 -7 5
3 13 1 16 -5 4 -6 1 -9 -7 -8 -9 2 -12 -5 -10 -22 2 -14 0 -21 -5 -17 -4 5 -8
14 -8 20 -1 7 -6 11 -13 10 -7 -2 -12 2 -12 8 0 5 -5 7 -11 3 -8 -5 -6 -10 5
-16 9 -5 14 -14 10 -19 -3 -5 -2 -8 3 -7 4 2 9 0 11 -4 1 -4 14 -19 28 -33 15
-15 23 -32 20 -41 -3 -8 -2 -13 2 -10 4 2 14 1 22 -5 10 -6 11 -9 3 -9 -7 0
-13 -5 -13 -11 0 -8 4 -9 13 0 8 6 18 7 23 3 4 -4 3 0 -4 9 -6 9 -9 19 -5 23
4 4 0 4 -10 0 -10 -3 -17 -1 -17 5 0 6 7 11 16 11 9 0 12 5 8 13 -4 7 -3 9 2
4 5 -5 10 -13 10 -18 1 -5 3 -10 4 -11 1 -2 4 -16 5 -33 2 -16 4 -31 5 -32 1
-2 3 -9 4 -15 1 -8 14 -12 33 -12 19 1 34 -4 37 -12 7 -18 -13 -29 -27 -15
-14 14 -27 14 -27 1 0 -5 3 -9 8 -8 13 2 42 -14 42 -24 0 -5 -5 -6 -12 -2 -7
4 -8 3 -4 -5 10 -15 29 -3 22 14 -6 17 21 28 30 13 4 -7 3 -8 -4 -4 -17 10
-15 -8 5 -43 10 -16 26 -32 36 -35 12 -3 16 -9 11 -17 -4 -8 -3 -10 5 -5 6 4
8 13 5 19 -5 9 -4 9 6 0 7 -6 19 -9 26 -6 8 3 14 0 14 -7 0 -7 7 -10 15 -6 22
8 18 -2 -6 -15 -17 -9 -20 -8 -14 2 6 8 4 10 -5 4 -8 -5 -11 -4 -7 2 3 5 0 10
-8 10 -18 0 -19 -5 -2 -22 7 -7 22 -13 33 -12 36 0 45 -3 39 -13 -3 -5 -1 -10
4 -10 6 0 11 5 11 10 0 6 5 10 11 10 5 0 8 -4 4 -9 -3 -5 -1 -12 4 -15 5 -4 8
-18 5 -31 -2 -14 0 -25 6 -25 6 0 8 -6 4 -12 -4 -7 -3 -9 1 -5 12 10 16 39 5
32 -4 -3 -6 4 -3 15 8 29 19 33 34 12 13 -15 12 -16 -4 -3 -22 18 -23 1 0 -42
9 -18 16 -39 15 -47 -2 -13 -1 -13 7 -1 10 16 46 7 36 -9 -3 -5 -1 -10 4 -10
23 0 10 28 -18 40 -33 13 -46 36 -28 46 7 4 9 4 5 -1 -8 -9 15 -35 32 -35 6 0
9 4 6 8 -3 5 1 9 9 9 11 0 12 -4 4 -13 -6 -8 -6 -14 0 -18 5 -4 12 -2 16 4 4
6 11 8 16 4 5 -3 7 -10 3 -15 -3 -5 -9 -7 -14 -4 -10 6 -4 -35 6 -44 4 -3 5 1
2 10 -4 9 2 20 13 27 11 7 19 9 18 5 -4 -21 3 -30 21 -29 21 1 23 -17 2 -20
-6 -1 -9 3 -6 8 4 7 2 8 -4 4 -6 -3 -15 2 -21 11 -9 16 -10 16 -8 -4 0 -12 5
-19 9 -17 4 3 8 1 8 -4 0 -22 30 -19 56 6 29 29 24 11 -8 -24 -15 -16 -15 -21
-4 -21 8 0 13 4 10 9 -3 4 2 8 10 8 9 0 16 6 16 13 0 9 3 8 9 -2 7 -11 10 -11
14 0 4 9 6 6 4 -5 -1 -10 4 -21 11 -23 7 -3 10 1 6 10 -3 8 0 18 6 22 7 4 10
0 8 -11 -2 -14 3 -19 19 -18 12 0 21 -4 20 -10 -1 -6 3 -10 9 -9 6 1 11 -5 11
-13 0 -18 -5 -18 -24 2 -9 8 -22 13 -30 10 -8 -3 -12 -2 -9 3 3 4 -7 6 -22 2
-25 -5 -25 -6 -4 -9 12 -2 20 -8 16 -13 -3 -5 0 -8 8 -7 7 2 12 -5 11 -16 -1
-13 2 -15 10 -7 7 7 6 15 -3 26 -8 9 -8 15 -2 15 6 0 18 -10 26 -22 9 -12 16
-18 16 -13 0 6 7 1 15 -9 8 -11 15 -14 15 -8 0 19 -4 27 -13 24 -4 -1 -3 7 3
18 12 23 22 27 14 5 -4 -8 -1 -15 4 -15 6 0 13 8 15 17 3 10 4 1 2 -19 -2 -22
1 -38 7 -38 5 0 8 6 5 13 -3 7 1 21 9 32 8 10 14 14 14 9 0 -6 -5 -15 -11 -21
-7 -7 -3 -10 15 -10 14 0 24 3 21 7 -2 3 2 7 9 7 17 0 13 -40 -5 -45 -11 -3
-11 -1 1 7 8 6 10 11 4 11 -5 0 -16 -6 -23 -12 -11 -11 -13 -10 -8 4 8 24 0
23 -12 -1 -9 -16 -6 -18 24 -16 19 1 35 -3 35 -9 0 -6 5 -4 10 4 5 8 10 11 10
6 0 -5 7 -3 16 5 13 11 15 9 9 -17 -5 -26 -4 -27 5 -6 8 19 30 23 30 6 0 -3
-4 -3 -8 0 -4 2 -9 -5 -9 -16 -2 -21 -2 -21 13 1 8 11 12 25 9 31 -3 5 0 7 7
5 8 -3 14 -14 14 -25 0 -10 -4 -17 -7 -14 -4 2 -10 1 -13 -4 -2 -4 4 -9 16 -9
12 -1 18 3 15 11 -3 7 -1 19 4 27 7 11 9 11 9 1 0 -8 5 -10 13 -6 7 5 6 0 -3
-11 -14 -17 -13 -18 4 -12 10 4 25 2 32 -4 11 -9 18 -9 28 0 12 10 14 9 10 -6
-3 -11 -15 -20 -27 -20 -12 -1 -29 -11 -39 -23 -11 -14 -18 -16 -21 -8 -4 10
-8 9 -16 -2 -8 -11 -11 -12 -11 -2 0 7 -5 10 -10 7 -6 -4 -7 -11 -4 -17 4 -6
-2 -6 -15 1 -11 7 -21 8 -21 4 0 -4 -5 -1 -10 7 -9 13 -10 13 -10 0 0 -13 -1
-13 -10 0 -6 10 -10 11 -10 3 0 -7 -5 -13 -11 -13 -5 0 -8 4 -5 8 2 4 -4 8
-14 8 -10 0 -16 -4 -14 -8 10 -16 -9 -8 -22 9 -11 14 -13 15 -9 2 4 -10 0 -16
-9 -16 -8 0 -13 4 -11 7 3 4 -6 7 -20 8 -14 0 -22 -4 -20 -8 7 -11 -22 -6 -32
5 -4 4 -2 5 6 0 10 -5 12 -4 7 4 -4 6 -12 9 -17 6 -5 -4 -18 -8 -30 -10 -18
-4 -19 -2 -7 12 12 15 11 15 -9 5 -29 -16 -56 -16 -47 0 5 9 2 9 -9 -1 -9 -7
-17 -9 -17 -3 0 14 -39 22 -47 10 -3 -6 -2 -8 3 -5 6 3 16 1 24 -4 11 -7 8 -8
-10 -5 -14 3 -29 5 -34 5 -5 1 -3 8 4 16 11 13 9 14 -16 0 -26 -13 -29 -13
-36 3 -4 9 -7 11 -7 5 -1 -7 -6 -13 -12 -13 -5 0 -8 4 -5 8 3 5 -1 9 -9 9 -8
0 -12 -5 -8 -10 3 -5 -4 -6 -17 -2 -15 5 -20 4 -16 -4 4 -6 1 -11 -6 -11 -10
0 -9 -3 2 -10 8 -5 11 -12 7 -16 -4 -4 -1 -14 6 -22 9 -12 9 -16 0 -19 -9 -3
-7 -11 7 -25 10 -11 23 -17 29 -13 6 3 11 -1 11 -10 0 -10 -5 -13 -12 -9 -7 5
-8 3 -3 -6 6 -10 14 -6 32 16 15 18 21 22 17 10 -5 -14 -4 -17 4 -12 12 7 34
-32 25 -46 -2 -5 3 -8 11 -8 9 0 16 -5 16 -10 0 -7 -6 -7 -19 0 -14 7 -22 7
-27 -2 -4 -6 -3 -8 2 -5 6 3 16 2 24 -3 9 -5 19 -5 27 2 11 8 12 7 6 -8 -6
-17 -5 -18 12 -4 14 11 19 12 22 2 3 -6 9 -10 14 -6 5 3 9 0 9 -5 0 -19 -5
-26 -18 -28 -8 -1 -17 -4 -20 -8 -7 -7 34 0 60 10 20 8 23 -3 7 -25 -9 -12
-10 -11 -4 5 5 15 3 17 -6 8 -16 -16 -3 -33 21 -28 17 3 24 -5 22 -26 -1 -3 5
-6 13 -6 8 0 12 4 9 9 -3 4 -2 8 3 9 4 0 19 2 33 4 14 2 19 1 12 -1 -6 -3 -9
-11 -5 -17 4 -7 -1 -6 -10 2 -11 9 -17 10 -17 2 0 -10 13 -15 33 -12 4 0 7 -3
7 -9 0 -5 9 -14 21 -21 16 -8 24 -8 33 2 8 9 7 11 -7 6 -11 -4 -16 -3 -12 3 3
5 0 7 -8 4 -18 -7 -28 18 -15 37 8 11 9 11 5 -3 -8 -24 4 -30 20 -10 12 16 13
15 6 -3 -3 -11 -3 -17 2 -13 4 4 16 -3 27 -15 13 -15 21 -18 24 -9 3 6 10 12
15 12 6 0 7 -5 3 -12 -5 -8 -2 -9 10 -5 9 4 15 3 12 -1 -6 -10 19 -43 30 -40
5 1 19 -4 32 -11 17 -9 20 -16 13 -25 -7 -8 -5 -12 9 -12 17 0 17 2 3 31 -16
30 -15 30 4 12 21 -18 48 -24 38 -8 -3 6 4 15 15 21 13 7 20 7 20 0 0 -5 -7
-10 -16 -10 -8 0 -13 -4 -9 -9 3 -5 1 -12 -5 -16 -5 -3 -10 -11 -10 -16 0 -5
10 0 22 11 20 19 24 19 34 5 9 -12 13 -13 17 -3 4 10 6 10 6 1 1 -7 6 -13 11
-13 7 0 7 7 0 22 -11 22 -10 21 8 -1 20 -25 22 -37 9 -58 -5 -8 -4 -13 2 -13
10 0 15 13 13 32 -2 13 26 29 33 18 4 -7 13 -7 28 1 21 10 21 9 3 -5 -14 -12
-23 -13 -33 -5 -10 9 -13 8 -13 -5 0 -10 5 -14 10 -11 6 3 13 -1 16 -9 5 -13
9 -12 23 6 23 27 47 31 47 8 0 -10 -4 -16 -8 -14 -4 3 -5 -2 -2 -11 8 -19 13
-15 19 15 2 12 7 25 11 29 4 3 4 -2 1 -12 -4 -11 -1 -20 8 -23 8 -4 12 -11 8
-18 -3 -6 3 -2 15 8 12 11 22 15 22 10 0 -5 5 -2 10 6 9 13 10 13 10 0 0 -13
1 -13 10 0 7 11 10 11 10 2 0 -7 5 -10 10 -7 6 4 8 10 5 15 -3 5 -1 11 4 14
10 7 9 -13 -2 -30 -9 -15 -5 -64 5 -58 4 3 4 12 1 22 -6 15 -5 16 13 2 18 -14
18 -14 5 3 -8 9 -11 20 -7 24 3 4 13 -2 21 -13 8 -10 15 -14 15 -9 0 6 5 3 11
-5 8 -12 9 -9 4 9 -6 21 -5 22 8 10 8 -8 13 -18 10 -22 -3 -5 4 -4 14 2 20 10
33 6 33 -11 0 -5 -5 -6 -12 -2 -7 5 -8 3 -3 -5 13 -22 28 4 16 27 -6 11 -11
27 -10 34 0 7 5 2 10 -11 8 -19 12 -21 24 -11 18 15 20 0 3 -20 -10 -11 -9
-11 6 0 18 14 19 13 13 -5 -7 -18 -6 -19 6 -3 8 10 17 14 22 10 4 -4 5 4 1 18
-3 14 -3 19 0 13 8 -18 24 -16 24 2 0 8 4 15 10 15 5 0 6 -8 3 -17 -6 -15 -4
-16 9 -5 11 9 18 10 23 2 3 -5 11 -10 17 -10 6 0 3 9 -6 19 -14 15 -15 21 -4
27 7 4 10 3 5 -1 -4 -5 0 -17 10 -27 17 -19 39 -25 28 -8 -3 6 1 7 10 3 13 -5
14 -7 3 -14 -10 -7 -10 -9 0 -9 6 0 12 -6 12 -14 0 -8 4 -18 10 -21 7 -4 7 3
0 19 -10 28 3 37 17 12 7 -12 10 -12 21 0 8 8 9 14 2 15 -5 1 -15 2 -22 3 -6
0 -13 8 -15 16 -4 12 -3 12 5 1 7 -9 12 -10 16 -2 4 6 13 11 19 11 7 0 6 -4
-3 -10 -16 -11 -18 -10 40 -14 14 0 31 -5 38 -10 7 -4 16 -5 19 -2 4 3 1 6 -6
6 -7 0 -9 5 -5 12 5 7 11 5 21 -7 16 -23 17 -12 2 17 -7 12 -7 18 -1 14 6 -3
13 0 15 6 4 10 6 10 6 1 1 -7 6 -13 12 -13 5 0 7 6 3 13 -5 8 -2 8 9 -2 20
-16 23 -2 5 19 -11 12 -10 12 4 1 13 -10 16 -22 13 -45 -4 -22 -3 -27 4 -16 5
8 7 18 5 22 -6 10 10 11 19 1 4 -3 2 -12 -4 -20 -9 -9 -8 -17 0 -27 9 -10 8
-15 -3 -19 -8 -3 -21 4 -30 16 -13 18 -14 19 -9 3 5 -14 3 -17 -7 -11 -9 5
-11 4 -6 -4 4 -6 12 -9 17 -6 5 4 9 1 9 -6 0 -7 -10 -9 -30 -5 -18 3 -30 1
-30 -5 0 -6 4 -8 9 -4 5 3 13 0 17 -7 4 -7 4 -10 -1 -6 -4 4 -15 2 -23 -5 -10
-8 -13 -8 -9 -1 4 7 0 14 -8 17 -10 4 -12 1 -8 -10 4 -10 2 -14 -4 -10 -6 4
-14 0 -17 -9 -5 -13 -9 -14 -21 -4 -14 11 -19 7 -16 -13 1 -4 -8 -3 -20 4 -19
10 -21 9 -15 -6 5 -13 3 -15 -6 -8 -18 13 -37 11 -48 -7 -8 -13 -10 -13 -10 2
0 9 -4 19 -9 22 -5 4 -7 -2 -4 -13 6 -22 -16 -39 -27 -21 -5 8 -9 7 -14 -6 -6
-16 -8 -15 -29 2 -15 13 -18 14 -9 3 10 -14 10 -18 -3 -23 -11 -4 -14 -2 -9 7
5 9 4 9 -7 0 -7 -7 -17 -13 -22 -13 -4 0 -5 6 -1 13 6 9 5 9 -8 0 -8 -7 -18
-9 -22 -5 -4 4 -7 2 -6 -3 5 -21 -1 -29 -10 -15 -9 13 -10 13 -10 0 0 -13 -1
-13 -10 0 -6 10 -10 11 -10 3 0 -7 -12 -13 -28 -13 -15 0 -34 -6 -41 -12 -10
-9 -12 -9 -7 -1 7 13 -31 10 -43 -3 -3 -4 2 -4 12 -1 19 7 24 -9 5 -16 -10 -4
-10 -6 0 -6 7 -1 10 -6 6 -12 -4 -8 0 -8 15 0 11 7 21 10 22 9 7 -33 7 -68 -1
-63 -6 4 -8 10 -6 14 3 4 1 13 -3 20 -6 9 -11 10 -15 2 -4 -6 -2 -11 4 -11 6
0 9 -4 5 -9 -3 -5 0 -13 5 -16 7 -5 5 -12 -7 -22 -10 -8 -12 -11 -4 -7 24 12
65 13 78 2 8 -7 13 -7 13 0 0 5 -7 15 -16 23 -12 10 -17 10 -23 0 -5 -7 -8 1
-8 21 -1 27 1 29 7 13 5 -11 9 -15 10 -10 0 6 5 3 10 -6 7 -12 20 -16 46 -13
33 3 35 2 18 -10 -10 -8 -21 -13 -24 -11 -3 2 -7 -6 -7 -18 -1 -12 1 -17 5
-11 11 18 54 37 61 27 3 -5 13 -8 21 -8 8 1 20 -2 25 -6 6 -4 12 -7 15 -8 19
0 39 -15 33 -25 -4 -7 -1 -7 9 1 8 7 17 10 21 7 3 -3 10 3 16 14 6 11 8 21 6
24 -2 2 4 4 15 5 18 2 18 1 -1 -18 -23 -23 -27 -48 -5 -30 10 8 16 9 21 1 3
-5 0 -10 -7 -10 -8 0 -6 -5 5 -11 9 -6 14 -15 11 -21 -4 -7 -2 -8 5 -4 9 6 9
11 1 21 -9 11 -6 13 17 12 15 -1 29 3 30 8 1 6 -11 9 -27 8 -22 -1 -30 3 -30
15 0 13 2 14 9 4 11 -18 12 -18 39 -3 12 7 20 17 16 23 -4 7 -2 8 5 4 9 -6 9
-11 0 -22 -7 -9 -8 -14 -1 -14 6 0 15 -12 20 -27 8 -22 11 -24 11 -8 1 19 3
18 21 -5 15 -18 18 -20 13 -6 -5 14 -3 17 7 11 9 -5 11 -4 6 3 -4 7 -1 12 9
12 9 0 14 -4 11 -8 -2 -4 5 -9 17 -9 20 -2 20 -1 4 8 -9 6 -15 15 -11 20 3 5
0 18 -7 27 -12 15 -12 15 7 -1 11 -9 23 -16 25 -15 2 2 -2 -3 -10 -10 -13 -10
-11 -12 11 -12 22 0 25 4 22 23 -4 15 1 11 15 -13 11 -19 20 -30 21 -25 0 6 9
11 21 12 16 2 18 -1 9 -12 -8 -10 -8 -15 1 -21 7 -4 9 -3 5 4 -3 6 -2 13 4 17
6 4 8 11 5 16 -4 5 -1 9 4 9 6 0 10 3 10 8 -3 19 3 21 24 7 13 -8 27 -12 30
-8 4 3 7 1 7 -6 0 -7 4 -10 9 -7 5 4 11 3 14 -1 2 -5 3 -3 1 3 -1 6 2 16 7 21
7 7 5 13 -6 17 -13 4 -16 2 -11 -9 3 -8 2 -15 -3 -15 -5 0 -11 9 -14 19 -4 15
0 19 15 16 27 -6 33 -12 33 -38 0 -11 6 -21 13 -23 7 -1 8 0 2 3 -15 7 -12 23
4 17 8 -3 17 0 21 6 6 9 10 9 17 -1 8 -11 9 -11 5 1 -2 8 -10 14 -16 12 -7 -1
-9 2 -5 9 4 8 3 9 -5 5 -6 -4 -9 -12 -6 -17 4 -5 1 -9 -4 -9 -16 0 -13 27 3
33 7 3 18 1 24 -5 7 -7 16 -6 30 1 11 6 28 8 37 5 9 -4 15 -3 14 2 -4 21 2 25
17 13 15 -12 16 -11 10 11 -6 25 -6 25 5 3 12 -23 59 -33 59 -13 0 5 -6 7 -13
4 -8 -3 -20 2 -27 11 -8 10 -9 15 -1 15 6 0 11 -4 11 -10 0 -5 5 -10 11 -10 5
0 7 5 3 12 -4 6 -3 8 4 4 5 -3 13 0 15 6 4 10 6 10 6 1 1 -20 21 -15 21 5 0
13 2 14 9 3 7 -11 9 -11 14 0 4 9 6 10 6 2 1 -7 8 -10 19 -7 14 5 14 4 2 -4
-8 -6 -18 -8 -22 -6 -4 3 -8 0 -8 -6 0 -6 -4 -9 -8 -6 -12 7 -38 -12 -29 -21
5 -4 11 -3 15 2 7 10 24 16 54 18 9 1 15 4 13 7 -2 3 0 12 5 20 5 9 4 20 -3
30 -11 13 -10 13 7 0 18 -14 19 -13 13 5 -7 19 -6 19 7 3 19 -26 27 -22 16 8
-7 16 -7 23 0 19 6 -3 10 -13 10 -21 0 -8 9 -14 20 -14 11 0 20 -6 20 -12 0
-7 6 -4 12 7 6 11 11 21 12 21 1 1 11 5 23 8 18 6 22 4 17 -8 -3 -9 -1 -16 6
-16 6 0 8 4 5 10 -3 5 3 15 15 22 11 7 20 17 20 22 0 5 -9 1 -19 -8 -14 -13
-21 -14 -27 -5 -4 7 -3 10 4 5 5 -3 19 6 30 21 16 22 20 24 19 9 -1 -13 6 -20
23 -22 14 -2 20 -1 14 3 -6 5 -16 18 -23 30 -8 17 -8 23 1 29 7 4 10 4 6 -1
-10 -10 10 -47 22 -40 4 3 11 -1 13 -7 4 -10 6 -10 6 0 1 6 8 12 16 12 19 0
19 10 -1 39 -16 22 -16 22 4 10 12 -7 26 -22 31 -34 11 -20 11 -20 6 0 -4 16
0 21 15 22 13 1 18 -2 14 -9 -4 -7 -2 -8 4 -4 6 4 9 13 5 22 -4 11 -9 12 -19
3 -11 -9 -14 -8 -14 2 0 11 -2 11 -9 1 -6 -10 -10 -10 -20 2 -9 11 -9 16 0 22
8 4 9 3 5 -4 -10 -16 7 -15 23 1 11 10 12 9 6 -2 -6 -10 -4 -13 7 -8 9 3 20 1
26 -5 6 -6 12 -6 17 3 5 7 4 10 -1 7 -5 -3 -15 1 -22 8 -11 13 -10 14 12 10
14 -3 30 -7 36 -11 6 -4 7 1 3 11 -4 11 -3 15 5 10 6 -3 13 -2 17 4 4 6 11 8
16 5 5 -3 6 2 2 11 -6 16 -7 15 -20 -2 -7 -10 -13 -14 -13 -10 0 5 -6 4 -13
-2 -8 -7 -18 -7 -27 -2 -8 5 -18 6 -24 3 -5 -3 -6 -1 -2 5 5 9 13 9 26 2 15
-8 21 -6 30 10 6 11 16 19 23 17 7 -1 11 4 9 11 -1 8 2 11 7 8 5 -4 13 -1 18
6 8 12 47 38 58 38 3 0 -3 -8 -12 -18 -10 -11 -22 -17 -27 -14 -5 3 -6 -1 -1
-8 6 -9 4 -11 -6 -5 -12 7 -12 6 0 -6 10 -11 15 -11 18 -1 3 6 9 10 14 7 5 -4
6 0 3 8 -3 8 2 17 10 20 9 4 16 14 16 22 0 9 5 13 10 10 6 -3 10 -2 10 4 0 5
-3 11 -7 14 -5 2 -2 2 4 1 7 -2 20 10 28 26 16 31 29 41 19 16 -9 -24 14 -28
26 -5 7 12 8 19 3 16 -5 -4 -10 -1 -10 6 0 7 8 13 18 13 10 0 15 -5 12 -10 -3
-5 -1 -6 5 -2 5 3 12 1 14 -6 3 -7 7 -5 11 6 5 11 3 15 -5 10 -8 -5 -9 -2 -5
10 4 9 3 15 -2 12 -5 -3 -11 1 -15 9 -3 8 0 17 6 21 7 4 8 3 4 -4 -4 -7 -1
-12 8 -12 10 0 13 6 10 18 -5 13 -4 14 4 3 6 -8 8 -20 5 -28 -3 -7 0 -13 7
-13 6 0 8 5 4 12 -5 8 -2 9 11 4 14 -5 16 -4 7 7 -7 8 -8 18 -4 22 4 5 2 5 -4
2 -6 -3 -11 -1 -11 6 0 7 8 13 18 13 11 0 16 -7 13 -19 -2 -11 0 -16 4 -13 4
4 8 12 8 17 1 5 2 13 3 19 0 5 7 8 14 6 6 -1 8 -1 4 2 -4 2 -3 10 4 18 6 8 16
11 22 7 6 -3 7 -1 3 5 -4 7 -2 12 5 12 7 0 9 3 6 6 -4 4 -13 1 -21 -5 -10 -8
-16 -9 -21 -1 -6 9 1 14 18 11 4 0 7 3 7 9 0 5 6 7 14 4 8 -3 17 0 21 5 3 6
10 9 14 7 4 -3 8 1 8 9 0 20 -13 19 -21 -1 -4 -9 -9 -14 -13 -11 -3 4 0 13 6
21 7 9 9 21 5 28 -5 7 5 5 20 -6 16 -10 25 -13 22 -7 -7 10 7 16 28 12 5 -1 3
5 -4 14 -13 15 -15 15 -26 1 -10 -14 -13 -14 -23 -2 -9 11 -9 16 0 22 8 4 9 3
5 -4 -4 -7 -3 -12 2 -12 17 0 22 13 9 29 -6 8 3 5 21 -8 17 -12 32 -18 32 -12
0 6 -4 11 -10 11 -5 0 -10 7 -10 16 0 8 -4 13 -8 10 -5 -3 -9 2 -9 10 0 10 7
8 24 -8 21 -20 23 -20 17 -4 -5 14 -4 17 5 11 10 -6 11 -3 2 13 -14 26 -14 35
0 27 6 -4 19 2 30 14 11 12 15 21 10 21 -6 0 -15 -8 -20 -17 -6 -10 -10 -13
-10 -8 0 6 6 19 14 29 12 16 12 22 2 35 -11 14 -10 14 6 2 14 -11 17 -11 18 0
1 8 1 18 0 22 -1 5 3 6 8 3 5 -3 12 1 15 10 4 10 14 14 25 11 14 -3 18 1 17
17 -1 12 4 20 12 18 8 -1 11 2 7 8 -9 14 8 13 23 -2 7 -7 12 -9 12 -5 0 3 -16
17 -36 31 -21 14 -31 27 -25 31 6 3 11 1 11 -5 0 -6 5 -8 12 -4 6 4 8 3 5 -3
-3 -5 0 -10 7 -10 8 0 12 6 9 12 -2 7 3 15 12 19 9 3 14 10 10 15 -3 5 5 17
17 25 12 9 18 16 12 16 -5 0 -15 -5 -22 -12 -9 -9 -12 -9 -12 1 0 7 -5 9 -11
5 -6 -3 -4 5 5 18 9 14 13 28 9 33 -5 4 -2 5 5 1 7 -4 15 -1 18 8 3 8 12 12
21 9 13 -5 13 -3 2 15 -10 16 -16 18 -22 9 -6 -8 -7 -8 -4 3 2 8 10 14 17 12
8 -2 10 3 6 13 -3 9 -2 13 4 10 6 -3 10 -1 10 4 0 6 -4 11 -10 11 -5 0 -10 5
-10 11 0 8 4 9 13 0 8 -6 17 -7 22 -3 4 4 3 -3 -3 -15 -9 -17 -9 -22 3 -27 8
-3 17 0 21 6 4 7 3 8 -4 4 -7 -4 -12 -1 -12 8 0 9 6 16 13 16 9 0 9 2 0 8 -9
6 -7 16 8 41 20 33 20 49 0 36 -6 -3 -9 -10 -7 -14 9 -14 -9 -30 -24 -21 -13
8 -13 10 2 10 17 0 18 15 4 40 -5 8 -6 12 -2 8 5 -4 17 2 29 12 11 11 24 17
30 13 5 -3 4 4 -2 16 -7 11 -17 21 -24 21 -8 0 -8 3 2 9 7 5 11 13 7 19 -3 6
-1 14 5 17 5 4 8 14 5 22 -7 17 10 53 25 53 6 0 3 -7 -5 -16 -20 -20 -21 -35
-1 -28 8 4 13 10 10 14 -3 5 -1 11 5 15 5 3 10 1 10 -5 0 -6 5 -8 11 -5 6 5 4
11 -7 19 -12 9 -14 15 -5 20 8 5 8 13 0 27 -6 12 -8 23 -5 26 3 4 0 13 -7 22
-9 12 -4 11 18 -3 20 -13 26 -15 18 -4 -7 8 -9 18 -5 22 4 4 1 6 -7 4 -8 -2
-15 7 -16 22 -2 14 -1 19 1 12 3 -6 11 -9 16 -6 7 4 8 2 4 -4 -4 -7 -3 -12 1
-12 5 0 14 10 22 23 13 20 13 21 -2 8 -10 -7 -18 -12 -18 -10 -13 42 -4 64 23
60 3 0 5 7 4 17 -2 9 4 22 12 28 12 9 12 13 2 19 -9 5 -11 4 -6 -3 4 -7 3 -12
-2 -12 -16 0 -22 13 -11 27 6 7 8 13 3 13 -5 0 2 10 16 21 l25 21 -25 -15
c-14 -8 -24 -21 -22 -27 1 -6 -1 -9 -6 -6 -4 2 -8 -6 -8 -19 0 -14 4 -21 11
-17 5 3 4 -1 -2 -10 -7 -8 -10 -18 -6 -21 3 -4 2 -7 -4 -7 -12 0 -10 65 2 94
5 11 4 26 -3 36 -9 14 -8 18 3 16 8 -1 18 -6 22 -11 4 -4 2 -5 -6 0 -10 5 -12
4 -7 -4 4 -6 12 -9 17 -5 5 3 7 9 4 14 -3 4 -2 10 2 13 5 2 2 2 -4 1 -15 -4
-17 12 -3 21 6 3 10 12 9 18 0 9 -2 8 -6 -1 -2 -6 -10 -9 -15 -6 -6 4 -8 2 -4
-4 3 -6 1 -14 -6 -18 -7 -4 -10 -4 -6 1 4 4 2 15 -5 23 -10 13 -9 14 1 8 7 -4
15 -1 18 8 3 9 10 14 14 11 4 -3 14 3 21 13 13 15 12 16 -3 3 -10 -7 -18 -10
-18 -6 0 4 -7 1 -17 -6 -15 -13 -15 -12 -3 8 8 12 18 19 24 16 5 -3 6 -1 2 5
-4 7 -15 12 -24 12 -11 0 -13 3 -5 11 8 8 17 8 34 -1 22 -10 22 -10 7 3 -10 8
-18 20 -18 28 0 10 -3 10 -12 1 -7 -7 -17 -12 -23 -12 -5 0 -4 4 4 9 13 8 13
12 0 27 -9 11 -9 15 -1 10 13 -8 13 19 0 40 -4 6 -1 11 7 11 7 0 12 -8 10 -18
-3 -13 1 -16 12 -12 8 3 11 9 6 12 -4 3 -9 17 -11 31 -2 20 -1 22 7 10 7 -9
11 -10 11 -3 0 6 -5 15 -10 18 -6 4 -7 11 -4 17 4 7 2 8 -5 4 -6 -4 -9 -11 -7
-15 3 -4 0 -13 -6 -21 -8 -12 -9 -12 -4 3 3 10 0 17 -7 17 -8 0 -7 4 3 10 12
8 13 12 2 19 -11 7 -11 9 2 14 8 3 17 1 20 -6 3 -9 5 -9 5 0 1 6 -3 15 -9 18
-5 3 -10 11 -10 16 0 6 6 7 13 3 9 -6 9 -5 0 8 -7 8 -9 18 -5 23 4 4 -3 2 -15
-4 -19 -10 -22 -9 -17 4 4 8 0 23 -7 32 -10 12 -10 15 -1 9 6 -4 12 -2 12 3 0
6 -4 11 -9 11 -5 0 -11 9 -14 19 -4 15 -1 18 12 14 9 -4 13 -3 9 2 -4 4 -3 14
4 22 9 11 8 13 -3 11 -8 -2 -13 3 -11 10 1 8 -2 11 -8 7 -8 -5 -8 -11 -1 -19
8 -9 7 -13 -4 -13 -8 0 -12 4 -9 8 2 4 -2 10 -8 12 -10 4 -10 6 0 6 6 1 12 6
12 12 0 5 -6 7 -12 3 -7 -4 -10 -4 -6 1 4 4 3 14 -3 21 -7 8 -7 14 0 19 7 4 3
14 -9 27 -11 12 -17 24 -14 27 3 3 10 -2 15 -12 6 -9 15 -17 21 -17 6 0 -1 11
-16 25 -23 21 -26 28 -16 40 15 19 -4 47 -29 43 -9 -2 -16 4 -16 12 0 8 -5 22
-10 30 -15 24 -17 52 -3 45 7 -4 4 0 -6 9 -10 8 -23 13 -29 9 -6 -3 -7 -1 -3
5 4 7 2 12 -3 12 -6 0 -10 3 -10 8 3 19 -2 33 -11 27 -9 -6 -15 16 -11 39 1 5
-6 3 -15 -5 -13 -10 -16 -10 -10 -1 5 8 0 20 -12 30 -10 9 -17 23 -15 30 3 8
-1 10 -14 5 -15 -6 -16 -4 -5 9 10 13 10 17 -3 22 -11 4 -14 2 -9 -6 4 -7 3
-8 -5 -4 -7 5 -9 17 -5 29 6 22 6 22 -11 2 -9 -11 -14 -15 -11 -9 8 16 -20 38
-35 28 -8 -4 -9 -3 -5 5 4 6 0 14 -8 17 -9 3 -16 10 -16 16 0 5 5 6 10 3 6 -3
10 -1 10 5 0 7 -8 9 -19 5 -13 -4 -24 0 -31 12 -10 15 -11 15 -6 1 3 -9 0 -19
-7 -22 -7 -2 -3 -5 8 -5 17 -1 17 -3 5 -11 -13 -8 -13 -10 2 -10 9 0 20 -4 23
-10 4 -6 -1 -7 -12 -3 -15 6 -16 4 -6 -9 7 -8 10 -18 6 -21 -3 -4 -1 -7 6 -7
8 0 7 -5 -3 -16 -9 -8 -14 -19 -11 -24 3 -5 0 -10 -7 -12 -8 -3 -6 -7 4 -11
12 -4 16 -1 13 13 -3 13 1 17 12 13 8 -3 11 -9 6 -12 -8 -5 -9 -14 -4 -38 1
-5 6 -1 11 7 6 9 10 10 10 3 0 -6 -5 -15 -10 -18 -16 -10 -1 -25 18 -19 13 5
14 4 3 -4 -10 -7 -11 -14 -1 -33 11 -23 11 -23 -5 -4 -9 11 -20 27 -25 35 -5
8 -12 11 -16 7 -5 -5 -2 -12 5 -16 8 -5 10 -14 6 -21 -6 -9 -4 -11 5 -5 10 6
12 4 7 -9 -4 -10 -3 -15 3 -11 6 3 10 -1 10 -9 0 -9 5 -16 12 -16 6 0 8 -3 5
-7 -4 -3 -3 -11 3 -17 6 -8 3 -12 -10 -12 -11 0 -17 6 -15 17 2 9 -5 23 -16
32 -10 9 -19 12 -19 7 0 -6 6 -13 14 -16 9 -4 13 -15 10 -31 -4 -20 -1 -24 10
-20 19 7 31 -9 15 -19 -8 -5 -9 -3 -4 6 5 9 4 11 -3 6 -9 -5 -9 -13 -2 -26 7
-13 7 -21 0 -25 -6 -4 -8 -11 -4 -16 9 -15 23 0 19 21 -2 10 4 25 13 32 13 11
14 11 7 -2 -14 -24 -16 -71 -2 -63 7 3 5 -2 -4 -13 -9 -10 -14 -25 -12 -31 3
-7 0 -13 -7 -13 -6 0 -8 5 -5 10 3 6 1 10 -5 10 -7 0 -10 -7 -6 -15 3 -8 2
-15 -3 -15 -4 0 -16 -15 -26 -34 -11 -19 -23 -32 -28 -29 -5 3 -3 -5 4 -18 11
-22 11 -23 -4 -11 -13 11 -15 10 -10 -7 3 -13 1 -21 -6 -21 -7 0 -9 5 -5 12 4
6 3 8 -4 5 -5 -4 -8 -17 -5 -30 3 -16 2 -18 -5 -9 -7 11 -10 10 -16 -3 -3 -9
-3 -22 1 -28 4 -7 -2 -5 -12 3 -10 8 -16 10 -12 4 3 -6 -1 -20 -9 -30 -9 -10
-12 -13 -8 -5 5 10 3 12 -5 7 -7 -5 -10 -15 -6 -23 5 -13 3 -14 -10 -3 -9 7
-15 9 -13 4 2 -5 -5 -20 -15 -34 -15 -20 -18 -21 -15 -6 2 10 -3 20 -10 22 -7
1 -8 0 -3 -2 15 -8 -14 -49 -43 -62 -19 -8 -26 -8 -30 1 -2 7 -5 4 -5 -5 -1
-10 -7 -18 -15 -18 -8 0 -22 -3 -32 -7 -13 -5 -15 -3 -9 8 4 8 -2 3 -15 -9
-18 -19 -24 -21 -31 -10 -6 10 -9 10 -9 1 0 -7 -11 -13 -24 -13 -13 0 -27 -6
-29 -12 -4 -10 -6 -10 -6 0 -1 6 -6 12 -12 12 -5 0 -8 -4 -5 -9 4 -5 -13 -8
-39 -6 -25 1 -42 -1 -39 -6 3 -5 -2 -6 -10 -3 -9 3 -16 10 -16 14 0 4 -7 11
-16 14 -13 5 -14 3 -6 -6 8 -10 5 -13 -13 -13 -13 0 -23 4 -22 9 1 6 -13 10
-30 9 -18 0 -33 5 -33 11 0 6 -5 4 -10 -4 -6 -10 -10 -11 -10 -2 0 6 -7 12
-16 12 -11 0 -14 5 -10 16 5 14 4 15 -9 4 -13 -11 -19 -9 -36 9 -11 12 -25 18
-31 15 -7 -5 -9 -2 -5 9 4 11 1 15 -13 12 -23 -4 -34 22 -18 44 8 10 4 9 -12
-4 -14 -11 -22 -16 -18 -11 4 5 -3 17 -15 27 -19 16 -20 20 -7 29 9 6 10 10 3
10 -6 0 -15 -5 -18 -10 -5 -8 -11 -7 -21 1 -11 9 -11 15 -3 25 6 8 16 11 22 7
6 -3 7 -1 3 6 -4 6 -11 9 -16 6 -4 -3 -10 -2 -13 2 -2 5 -2 2 -1 -4 2 -7 0
-13 -5 -13 -13 0 -19 35 -10 53 6 10 5 18 -1 22 -6 4 -10 3 -9 -2 3 -19 -2
-33 -12 -33 -5 0 -8 4 -5 9 7 11 -29 53 -38 44 -4 -4 -4 -1 -1 8 3 8 -3 26
-14 38 -18 21 -20 41 -5 41 3 0 3 -4 0 -9 -3 -5 1 -14 9 -21 10 -9 15 -9 15
-1 0 6 -5 11 -10 11 -6 0 -9 6 -8 13 2 6 -4 11 -12 10 -10 -2 -16 6 -18 22 -1
14 3 25 10 25 6 0 8 3 5 6 -4 4 -14 1 -23 -7 -16 -13 -16 -12 -4 11 12 22 12
24 -2 12 -13 -10 -15 -9 -10 13 2 14 9 25 15 25 6 0 7 3 4 6 -4 4 -14 1 -24
-7 -11 -9 -14 -10 -9 -2 12 21 15 52 6 58 -5 3 -7 -3 -5 -15 2 -11 0 -22 -5
-25 -5 -3 -7 4 -5 15 2 11 -2 20 -8 20 -7 1 -1 7 12 14 20 11 21 14 7 19 -10
4 -15 3 -12 -1 3 -5 -1 -9 -8 -9 -8 0 -12 6 -9 14 3 7 1 13 -5 13 -5 0 -12 9
-15 20 -3 11 -2 18 3 15 4 -3 11 2 14 11 3 8 2 12 -4 9 -6 -3 -10 -1 -10 5 0
6 -5 8 -12 4 -10 -6 -10 -5 -1 8 7 8 10 18 6 22 -4 4 0 4 10 0 10 -3 17 -1 17
5 0 6 -3 10 -7 10 -20 -3 -31 2 -37 17 -4 9 -2 13 5 8 7 -4 10 -1 7 7 -3 8
-10 13 -15 12 -5 -1 -10 5 -10 12 0 11 4 12 13 4 8 -7 14 -6 20 2 4 8 3 9 -4
5 -7 -4 -12 -3 -12 3 0 5 6 12 13 15 6 3 1 4 -13 1 -14 -3 -19 -2 -12 1 6 3
10 9 7 14 -3 5 2 16 11 24 16 17 5 23 -11 7 -6 -6 -16 -3 -25 7 -13 14 -12 15
2 10 25 -10 30 4 7 20 -13 9 -17 18 -11 25 5 7 12 20 16 31 4 13 2 17 -8 13
-9 -4 -13 0 -11 11 2 9 4 21 4 25 1 5 5 6 10 2 5 -3 12 -1 15 4 4 5 -5 8 -19
6 -14 -1 -25 2 -25 6 0 5 9 9 19 9 11 0 23 4 26 10 4 6 -4 9 -17 7 -23 -2 -24
-1 -15 58 1 6 -4 9 -10 8 -7 -2 -13 2 -13 7 0 6 10 8 24 4 13 -3 26 -2 29 3 3
5 -4 9 -16 9 -18 -1 -22 4 -20 29 2 17 12 37 25 47 24 19 18 24 -10 9 -15 -8
-17 -4 -16 27 0 21 -5 40 -10 44 -8 5 -8 8 0 8 6 0 10 13 9 29 -1 26 1 29 16
20 15 -7 17 -6 13 6 -6 14 -18 19 -38 16 -5 -1 -4 5 4 13 7 9 9 16 4 16 -5 0
-1 5 9 11 12 7 15 15 9 22 -11 16 -10 37 3 37 14 0 13 -41 -2 -65 -11 -19 -10
-21 10 -22 12 0 16 1 10 4 -7 3 -13 9 -13 14 0 6 4 8 8 5 5 -3 8 7 7 22 -1 15
5 38 13 52 11 20 11 22 0 9 -12 -15 -16 -15 -33 -3 -11 9 -14 14 -6 14 11 0
11 3 0 18 -13 15 -12 16 3 3 10 -7 15 -18 11 -25 -3 -6 3 -2 15 8 26 23 26 22
8 29 -11 4 -13 1 -10 -11 3 -9 -1 -6 -9 8 -9 15 -12 31 -7 40 4 8 7 19 7 24
-1 5 6 10 16 12 11 1 22 6 25 10 4 4 -1 4 -10 1 -10 -4 -18 -2 -18 4 0 6 -6 7
-12 3 -8 -4 -10 -3 -5 2 5 5 18 9 30 9 16 0 21 7 23 33 1 17 -2 32 -7 32 -5 0
-8 -5 -6 -11 1 -6 -6 -13 -16 -14 -11 -2 -14 1 -10 8 7 12 9 17 12 36 2 14 30
21 37 9 4 -6 3 -8 -4 -4 -6 3 -13 2 -16 -3 -4 -5 1 -8 11 -7 9 2 17 10 19 19
1 10 -2 15 -7 11 -5 -3 -9 0 -9 7 0 6 -8 18 -17 25 -17 13 -17 14 0 8 12 -5
16 -2 12 9 -4 8 1 17 10 21 11 4 14 2 8 -7 -11 -18 -12 -37 -2 -37 5 0 10 5
10 10 1 6 2 14 3 19 0 5 10 17 21 27 12 11 15 15 8 10 -8 -5 -17 -6 -20 -2 -4
4 -2 11 6 15 7 5 12 11 12 15 -3 24 0 27 16 15 15 -13 15 -12 2 9 -8 12 -17
22 -22 22 -4 0 -5 -5 -1 -12 4 -7 3 -8 -4 -4 -8 5 -10 2 -6 -8 3 -9 2 -16 -4
-16 -6 0 -9 -11 -7 -25 2 -21 0 -23 -12 -13 -11 9 -11 13 -1 19 10 7 10 9 -2
9 -12 1 -12 3 2 11 10 5 15 16 12 24 -4 9 0 15 7 15 11 0 11 3 -1 10 -11 7
-11 10 -2 10 7 0 11 4 8 9 -3 5 8 8 25 7 16 -1 33 2 36 7 3 6 1 7 -5 3 -7 -4
-12 -2 -12 4 0 6 -4 9 -9 5 -5 -3 -12 -1 -15 4 -3 5 8 8 25 7 16 -1 32 2 35 6
3 5 2 8 -3 7 -4 -1 -18 -1 -31 0 -25 1 -27 25 -4 49 7 8 9 18 6 24 -5 7 -2 8
6 3 10 -6 12 -4 7 8 -4 11 -2 14 9 10 13 -5 13 -8 -2 -24 -10 -11 -14 -22 -9
-27 4 -4 10 -1 12 6 3 7 10 18 17 25 7 7 13 20 14 30 1 9 3 23 3 30 1 6 0 17
-2 24 -2 6 1 10 6 10 6 -1 9 -6 7 -12 -2 -5 2 -5 9 2 9 9 9 16 1 25 -7 8 -7
19 -2 28 5 8 6 18 3 24 -4 5 -1 6 7 1 10 -6 12 -4 6 11 -6 15 -5 16 5 7 18
-18 71 21 62 45 -5 14 -3 14 18 -3 l24 -20 -15 20 c-8 11 -19 23 -25 27 -6 5
-4 8 5 9 10 0 8 3 -5 9 -18 8 -18 9 -2 9 10 1 21 -9 26 -21 l8 -22 5 22 c4 15
0 25 -10 32 -10 5 -12 10 -5 10 7 0 10 7 7 18 -5 14 -4 15 5 2 10 -14 16 -7
12 13 -1 5 3 5 9 2 8 -5 6 -13 -5 -25 -13 -15 -14 -18 -2 -23 9 -3 14 1 13 11
-1 12 7 17 26 16 15 0 24 4 22 8 -3 5 -13 7 -21 6 -9 -2 -18 3 -20 10 -3 8 1
10 14 5 17 -7 17 -6 1 11 -20 20 -23 36 -7 36 5 0 7 -6 3 -12 -5 -10 -3 -10 7
0 12 11 12 14 0 21 -9 6 -10 10 -2 12 6 2 13 14 16 27 5 26 2 27 -15 7z m-525
-85 c-3 -5 -12 -10 -18 -10 -7 0 -6 4 3 10 19 12 23 12 15 0z m495 0 c0 -5 -5
-10 -11 -10 -5 0 -7 5 -4 10 3 6 8 10 11 10 2 0 4 -4 4 -10z m-512 -36 c-1 -5
-9 -9 -16 -10 -10 -2 -11 1 -1 12 12 14 24 13 17 -2z m12 -28 c0 -2 -7 -9 -15
-16 -13 -11 -14 -10 -9 4 5 14 24 23 24 12z m-48 -58 c-6 -6 -7 0 -4 19 5 21
7 23 10 9 2 -10 0 -22 -6 -28z m-1072 2 c0 -5 -5 -10 -11 -10 -5 0 -7 5 -4 10
3 6 8 10 11 10 2 0 4 -4 4 -10z m1545 1 c-3 -5 -1 -12 5 -16 6 -4 7 -11 3 -18
-4 -7 -9 -4 -13 9 -7 18 -4 34 6 34 3 0 3 -4 -1 -9z m-1548 -86 c0 -8 -4 -12
-9 -9 -5 3 -6 10 -3 15 9 13 12 11 12 -6z m1059 -40 c1 -8 -2 -13 -7 -9 -5 3
-7 10 -4 15 4 5 1 9 -4 9 -6 0 -11 5 -11 12 0 17 23 -7 26 -27z m-4 -35 c-4
-3 -7 -12 -7 -20 0 -8 -6 -16 -12 -16 -26 -3 -26 -4 -7 -19 10 -8 14 -15 8
-15 -18 0 -37 27 -24 35 6 3 7 12 3 18 -4 7 0 6 10 -2 16 -13 25 -2 10 13 -4
3 -8 13 -9 21 -2 11 2 12 17 2 10 -6 15 -14 11 -17z m395 -25 c-13 -9 -14 -15
-4 -25 10 -11 8 -11 -6 0 -17 13 -17 15 -3 25 9 7 12 16 8 20 -4 5 -1 5 7 0
12 -7 11 -10 -2 -20z m-707 -53 c0 -5 -7 -17 -15 -28 -14 -18 -14 -17 -4 9 12
27 19 34 19 19z m-972 -22 c-7 -11 -17 -20 -22 -20 -4 0 -3 6 3 13 6 8 8 17 4
20 -3 4 1 7 10 7 15 0 15 -3 5 -20z m1279 -20 c1 -11 -4 -19 -10 -17 -21 4
-27 22 -9 29 9 4 17 7 17 7 1 1 1 -8 2 -19z m-47 0 c0 -5 -2 -10 -4 -10 -3 0
-8 5 -11 10 -3 6 -1 10 4 10 6 0 11 -4 11 -10z m40 -85 c0 -2 -13 -11 -28 -19
-25 -13 -29 -13 -29 0 0 8 6 13 12 10 7 -2 18 0 26 5 16 10 19 11 19 4z m-585
-95 c3 -5 1 -10 -4 -10 -6 0 -11 5 -11 10 0 6 2 10 4 10 3 0 8 -4 11 -10z
m-109 -22 c4 -7 3 -8 -4 -4 -7 4 -12 2 -12 -3 0 -6 -5 -11 -11 -11 -8 0 -8 5
1 15 15 18 17 18 26 3z m-418 -14 c-4 -11 -28 -14 -28 -4 0 8 22 20 28 14 2
-1 2 -6 0 -10z m1382 -48 c0 -2 -7 -7 -16 -10 -8 -3 -12 -2 -9 4 6 10 25 14
25 6z m-3 -99 c0 -8 -6 -14 -14 -14 -17 0 -17 14 0 20 6 3 12 6 13 6 0 1 1 -5
1 -12z m-1987 -82 c0 -5 -5 -3 -10 5 -5 8 -10 20 -10 25 0 6 5 3 10 -5 5 -8
10 -19 10 -25z m314 -23 c3 -5 -1 -9 -9 -9 -8 0 -12 4 -9 9 3 4 7 8 9 8 2 0 6
-4 9 -8z m-388 -27 c-8 -8 -13 -24 -11 -34 2 -11 -3 -22 -11 -25 -11 -4 -12
-1 -6 12 5 9 8 24 7 32 -1 15 13 30 28 30 5 0 2 -7 -7 -15z m994 -105 c0 -5
-2 -10 -4 -10 -3 0 -8 5 -11 10 -3 6 -1 10 4 10 6 0 11 -4 11 -10z m325 0 c3
-5 1 -10 -4 -10 -6 0 -11 5 -11 10 0 6 2 10 4 10 3 0 8 -4 11 -10z m-9 -35
c-1 -8 -6 -18 -11 -22 -4 -5 -5 -2 0 6 6 11 4 13 -11 8 -18 -7 -18 -7 0 8 24
18 25 18 22 0z m20 -30 c-1 -8 -5 -17 -8 -21 -5 -4 -4 16 1 34 3 9 9 -1 7 -13z
m-956 -100 c0 -2 -6 -5 -13 -8 -8 -3 -14 1 -14 8 0 7 6 11 14 8 7 -3 13 -6 13
-8z m-405 -43 c-3 -3 -11 0 -18 7 -9 10 -8 11 6 5 10 -3 15 -9 12 -12z m5 -16
c0 -2 -7 -7 -16 -10 -8 -3 -12 -2 -9 4 6 10 25 14 25 6z m790 -37 c0 -5 -4 -7
-10 -4 -5 3 -10 1 -10 -6 0 -7 -3 -10 -6 -6 -8 7 4 27 17 27 5 0 9 -5 9 -11z
m-784 -46 c-10 -11 -19 -7 -22 10 -2 15 0 16 12 6 8 -6 12 -14 10 -16z m770
-135 c4 -7 4 -10 -1 -6 -4 4 -15 2 -24 -5 -14 -11 -14 -10 -2 6 16 20 18 21
27 5z m-1051 -18 c3 -5 1 -10 -4 -10 -6 0 -11 5 -11 10 0 6 2 10 4 10 3 0 8
-4 11 -10z m305 -30 c-13 -9 -13 -11 0 -20 17 -11 10 -13 -14 -4 -13 5 -14 9
-5 20 6 8 17 14 23 14 6 0 4 -5 -4 -10z m1070 -55 c0 -17 -2 -18 -25 -9 -13 5
-14 8 -3 15 19 13 28 11 28 -6z m-287 -80 c4 -8 3 -16 -1 -19 -4 -3 -9 4 -9
15 -2 23 3 25 10 4z m-741 -23 c-7 -2 -10 -8 -6 -13 3 -5 0 -9 -5 -9 -13 0
-13 3 -5 24 3 9 11 13 17 9 8 -5 7 -8 -1 -11z m1065 -42 c-4 -28 -15 -35 -12
-8 3 27 3 28 10 28 3 0 4 -9 2 -20z m-1026 -119 c-11 -7 -9 -11 9 -21 18 -9
20 -14 9 -21 -24 -14 -41 12 -30 49 1 1 7 2 14 2 9 0 8 -3 -2 -9z m33 -93 c-3
-4 1 -8 8 -8 10 0 9 -3 -2 -11 -12 -9 -11 -10 8 -6 12 3 20 1 16 -4 -3 -5 -12
-9 -20 -9 -8 0 -14 -5 -14 -11 0 -5 5 -7 12 -3 8 5 9 2 5 -9 -3 -10 -2 -17 2
-17 5 0 12 6 14 13 4 9 6 9 6 0 1 -16 -32 -34 -47 -24 -13 8 -13 50 1 69 6 8
6 12 -2 12 -6 0 -11 4 -11 8 0 5 7 9 15 9 8 0 12 -4 9 -9z m767 -31 c-10 -9
-11 -8 -5 6 3 10 9 15 12 12 3 -3 0 -11 -7 -18z m2627 -43 c-14 -14 -15 -14
-13 8 3 33 4 33 17 20 10 -9 9 -16 -4 -28z m-3358 -36 c-16 -18 -23 -19 -33
-9 -10 10 -8 11 7 5 13 -5 17 -4 13 3 -4 6 -1 14 5 16 26 11 28 6 8 -15z
m-436 -6 c2 -4 -4 -8 -14 -8 -10 0 -16 4 -14 8 3 4 9 8 14 8 5 0 11 -4 14 -8z
m456 -21 c0 -6 -4 -12 -8 -15 -5 -3 -9 1 -9 9 0 8 4 15 9 15 4 0 8 -4 8 -9z
m3080 -9 c0 -5 -7 -9 -15 -9 -8 0 -12 4 -9 9 3 4 9 8 15 8 5 0 9 -4 9 -8z
m-40 -46 c0 -3 -4 -8 -10 -11 -5 -3 -10 -1 -10 4 0 6 5 11 10 11 6 0 10 -2 10
-4z m-2446 -85 c3 -5 -2 -15 -12 -22 -15 -12 -16 -12 -5 2 7 9 10 19 6 22 -3
4 -4 7 0 7 3 0 8 -4 11 -9z m-964 -96 c11 7 7 -22 -5 -32 -4 -4 -5 -2 -1 5 4
7 1 15 -8 18 -9 3 -12 12 -8 22 6 16 7 15 10 -1 2 -9 7 -15 12 -12z m3800 -10
c-10 -12 -10 -15 0 -15 8 0 11 -3 7 -6 -3 -3 -11 -3 -17 1 -8 5 -8 11 1 21 6
8 14 14 16 14 3 0 0 -7 -7 -15z m-2775 -15 c3 -5 1 -10 -4 -10 -6 0 -11 5 -11
10 0 6 2 10 4 10 3 0 8 -4 11 -10z m365 -25 c0 -2 -9 -3 -19 -2 -11 0 -18 5
-15 9 4 6 34 0 34 -7z m-345 -15 c3 -5 1 -10 -4 -10 -6 0 -11 5 -11 10 0 6 2
10 4 10 3 0 8 -4 11 -10z m-998 -15 c5 -4 2 -5 -6 0 -11 6 -13 4 -8 -8 3 -9 1
-19 -6 -23 -7 -4 -9 -4 -5 1 4 4 3 16 -2 25 -7 14 -6 18 5 16 8 -1 18 -6 22
-11z m1357 -19 c-4 -22 -1 -24 22 -20 24 4 25 4 10 -11 -9 -9 -13 -21 -10 -27
4 -7 2 -8 -4 -4 -6 4 -9 13 -6 21 4 10 0 13 -15 10 -18 -3 -20 -1 -11 16 6 10
8 19 5 19 -4 0 -3 5 0 10 10 17 14 11 9 -14z m-334 -26 c0 -5 -2 -10 -4 -10
-3 0 -8 5 -11 10 -3 6 -1 10 4 10 6 0 11 -4 11 -10z m377 -32 c-3 -8 -6 -5 -6
6 -1 11 2 17 5 13 3 -3 4 -12 1 -19z m-1340 -15 c0 -9 -4 -10 -14 -2 -7 6 -13
12 -13 14 0 1 6 2 13 2 8 0 14 -6 14 -14z m1079 -95 c3 -4 -1 -5 -10 -4 -8 1
-18 5 -22 8 -3 4 1 5 10 4 8 -1 18 -5 22 -8z m39 -39 c3 -3 -6 -5 -19 -5 -14
1 -28 4 -31 7 -3 3 6 5 19 5 14 -1 28 -4 31 -7z m24 -32 c8 -10 7 -14 -2 -14
-8 0 -14 6 -14 14 0 7 1 13 2 13 2 0 8 -6 14 -13z m61 -67 c0 -5 -2 -10 -4
-10 -3 0 -8 5 -11 10 -3 6 -1 10 4 10 6 0 11 -4 11 -10z m-1445 -28 c-3 -3
-11 0 -18 7 -9 10 -8 11 6 5 10 -3 15 -9 12 -12z m440 8 c3 -6 -1 -7 -9 -4
-18 7 -21 14 -7 14 6 0 13 -4 16 -10z m1059 2 c3 -5 -1 -9 -9 -9 -8 0 -12 4
-9 9 3 4 7 8 9 8 2 0 6 -4 9 -8z m-1508 -39 c-10 -11 -19 -7 -22 10 -2 15 0
16 12 6 8 -6 12 -14 10 -16z m434 17 c0 -5 -5 -10 -11 -10 -5 0 -7 5 -4 10 3
6 8 10 11 10 2 0 4 -4 4 -10z m1164 -58 c3 -5 -1 -9 -9 -9 -8 0 -12 4 -9 9 3
4 7 8 9 8 2 0 6 -4 9 -8z m-1547 -65 c2 -12 4 -28 5 -34 1 -12 12 -17 31 -14
4 0 7 -3 7 -9 0 -5 -5 -10 -11 -10 -5 0 -7 -4 -4 -10 4 -6 -1 -7 -11 -3 -12 4
-14 8 -5 11 8 3 6 9 -8 19 -12 8 -19 19 -15 24 3 5 0 16 -6 24 -10 11 -10 15
-1 15 7 0 9 5 5 13 -4 6 -3 9 1 4 5 -4 10 -17 12 -30z m1787 -55 c3 -5 -1 -9
-9 -9 -8 0 -12 4 -9 9 3 4 7 8 9 8 2 0 6 -4 9 -8z m32 -18 c1 -9 0 -13 -4 -10
-3 4 -7 14 -8 22 -1 9 0 13 4 10 3 -4 7 -14 8 -22z m-1172 -38 c-3 -9 -10 -16
-15 -16 -5 0 -4 9 3 20 14 22 21 20 12 -4z m3217 -29 c-8 -8 -14 -7 -23 2 -11
10 -9 11 6 5 15 -6 17 -4 11 6 -6 9 -4 11 4 5 9 -5 10 -10 2 -18z m-3770 -4
c8 -10 9 -14 2 -10 -6 4 -14 3 -18 -3 -5 -9 15 -15 38 -11 4 1 3 -8 -3 -19
-13 -24 -22 -27 -13 -3 4 10 2 14 -4 10 -6 -4 -17 1 -24 10 -11 13 -11 17 -1
20 6 3 10 9 6 14 -9 15 3 10 17 -8z m629 11 c0 -8 -19 -13 -24 -6 -3 5 1 9 9
9 8 0 15 -2 15 -3z m-540 -117 c7 -10 9 -17 3 -15 -6 2 -11 -1 -11 -7 -1 -5 6
-9 15 -7 8 2 13 -2 11 -9 -2 -7 -12 -13 -22 -15 -10 -1 -15 0 -12 3 3 4 1 12
-5 19 -6 8 -7 14 0 18 6 4 7 14 4 24 -7 18 -5 17 17 -11z m75 -67 c3 -5 1 -10
-4 -10 -6 0 -11 5 -11 10 0 6 2 10 4 10 3 0 8 -4 11 -10z m32 -82 c-8 -5 -6
-8 6 -8 9 0 17 -4 17 -10 0 -15 -28 0 -44 25 -14 22 -14 22 9 11 16 -7 20 -13
12 -18z m53 -18 c0 -5 -2 -10 -4 -10 -3 0 -8 5 -11 10 -3 6 -1 10 4 10 6 0 11
-4 11 -10z m3440 -2 c0 -4 -4 -8 -9 -8 -6 0 -12 4 -15 8 -3 5 1 9 9 9 8 0 15
-4 15 -9z m-3116 -196 c3 -5 -1 -9 -9 -9 -8 0 -12 4 -9 9 3 4 7 8 9 8 2 0 6
-4 9 -8z m3026 -22 c-20 -13 -33 -13 -25 0 3 6 14 10 23 10 15 0 15 -2 2 -10z
m-2830 -54 c0 -3 -4 -8 -10 -11 -5 -3 -10 -1 -10 4 0 6 5 11 10 11 6 0 10 -2
10 -4z m2787 -14 c-10 -10 -16 -21 -15 -23 2 -2 1 -3 -1 -2 -2 1 -13 -2 -25
-8 -11 -6 -5 3 14 20 39 35 52 41 27 13z m-2670 -67 c0 -8 -6 -16 -13 -19 -7
-3 -10 2 -7 15 6 22 20 26 20 4z m53 -1 c0 -8 -19 -13 -24 -6 -3 5 1 9 9 9 8
0 15 -2 15 -3z m67 -9 c0 -8 -4 -12 -9 -9 -4 3 -8 9 -8 15 0 5 4 9 8 9 5 0 9
-7 9 -15z m53 -35 c0 -5 -5 -10 -11 -10 -5 0 -7 5 -4 10 3 6 8 10 11 10 2 0 4
-4 4 -10z m67 -7 c0 -9 -4 -10 -14 -2 -10 9 -13 8 -13 -1 0 -8 -3 -11 -6 -7
-9 9 3 24 19 24 7 0 14 -6 14 -14z m2318 -2 c3 -5 2 -12 -3 -15 -5 -3 -9 1 -9
9 0 17 3 19 12 6z m-2261 -9 c3 -5 -1 -9 -9 -9 -8 0 -12 4 -9 9 3 4 7 8 9 8 2
0 6 -4 9 -8z m-73 -21 c-8 -6 -9 -11 -3 -15 6 -4 15 2 21 11 9 16 12 16 21 3
5 -8 10 -11 10 -7 0 5 5 5 10 2 6 -4 8 -11 4 -16 -4 -6 -11 -6 -20 2 -12 10
-19 8 -37 -9 -18 -17 -26 -19 -35 -10 -8 8 -15 9 -20 3 -8 -12 -52 -16 -52 -4
0 9 39 24 71 28 5 0 8 5 5 9 -2 4 5 9 17 9 15 2 18 0 8 -6z m116 -11 c-1 -21
-10 -18 -13 5 -1 8 2 15 6 15 5 0 8 -9 7 -20z m-794 -47 c-7 -3 -9 -11 -6 -19
4 -12 8 -12 22 -2 13 10 13 9 -2 -8 -9 -11 -14 -24 -10 -27 3 -4 1 -7 -5 -7
-11 0 -16 14 -13 34 1 4 -3 14 -9 20 -13 16 -3 26 18 18 10 -3 11 -7 5 -9z
m37 -43 c0 -5 -5 -10 -11 -10 -5 0 -7 5 -4 10 3 6 8 10 11 10 2 0 4 -4 4 -10z
m2846 -58 c-17 -16 -18 -16 -5 5 7 12 15 20 18 17 3 -2 -3 -12 -13 -22z m-38
-79 c-6 -7 -12 -13 -13 -13 -2 0 -5 6 -8 13 -3 7 3 13 14 13 13 0 15 -3 7 -13z
m-2617 -40 c-12 -20 -14 -14 -5 12 4 9 9 14 11 11 3 -2 0 -13 -6 -23z m43 -2
c3 -5 0 -14 -8 -20 -10 -9 -15 -8 -19 3 -4 11 -1 13 10 9 11 -4 14 -2 9 5 -4
7 -5 12 -2 12 3 0 7 -4 10 -9z m40 1 c3 -5 -1 -9 -9 -9 -8 0 -12 4 -9 9 3 4 7
8 9 8 2 0 6 -4 9 -8z m106 -58 c0 -8 -19 -13 -24 -6 -3 5 1 9 9 9 8 0 15 -2
15 -3z m72 -49 c-8 -16 -9 -16 -15 -1 -4 10 -3 15 3 11 6 -3 10 -1 10 6 0 7 3
10 6 6 3 -3 2 -13 -4 -22z m28 -15 c0 -5 -2 -10 -4 -10 -3 0 -8 5 -11 10 -3 6
-1 10 4 10 6 0 11 -4 11 -10z m60 6 c0 -3 -4 -8 -10 -11 -5 -3 -10 -1 -10 4 0
6 5 11 10 11 6 0 10 -2 10 -4z m1155 -6 c4 -6 1 -9 -7 -8 -7 2 -12 -3 -10 -10
1 -8 -2 -11 -8 -7 -8 5 -7 11 1 21 14 17 16 17 24 4z m-79 -15 c-1 -8 -5 -17
-8 -21 -5 -4 -4 16 1 34 3 9 9 -1 7 -13z m962 -20 c-3 -3 -9 2 -12 12 -6 14
-5 15 5 6 7 -7 10 -15 7 -18z m-947 -8 c-6 -8 -9 -23 -5 -33 5 -16 4 -16 -5
-4 -10 14 -16 7 -11 -15 1 -5 -2 -7 -6 -2 -4 4 -16 0 -26 -10 -10 -9 -18 -13
-18 -8 0 4 -6 3 -13 -3 -19 -16 -46 3 -29 20 10 10 15 10 22 -2 5 -8 10 -10
10 -5 0 15 -16 37 -25 33 -4 -1 -14 8 -22 22 l-15 25 20 -22 c20 -22 40 -20
22 2 -7 8 -5 12 5 12 8 0 12 -4 9 -8 -2 -4 0 -10 6 -14 5 -3 10 2 11 12 0 11
3 13 6 5 2 -6 9 -10 14 -7 5 4 6 -2 2 -11 -6 -15 -4 -15 20 1 15 9 27 22 27
28 0 6 3 7 6 4 4 -4 2 -13 -5 -20z m25 -13 c-4 -9 -9 -15 -11 -12 -3 3 -3 13
1 22 4 9 9 15 11 12 3 -3 3 -13 -1 -22z m-259 1 c0 -8 -4 -12 -9 -9 -5 3 -6
10 -3 15 9 13 12 11 12 -6z m-570 -14 c0 -11 -5 -18 -9 -15 -4 3 -5 11 -1 19
7 21 12 19 10 -4z m150 4 c0 -8 -4 -12 -9 -9 -5 3 -6 10 -3 15 9 13 12 11 12
-6z m258 5 c3 -5 1 -10 -4 -10 -6 0 -11 5 -11 10 0 6 2 10 4 10 3 0 8 -4 11
-10z m135 -15 c5 3 11 1 14 -4 4 -5 -2 -8 -11 -7 -9 2 -18 8 -19 15 -1 6 0 7
3 1 2 -5 9 -8 13 -5z m-413 -27 c-3 -8 -6 -5 -6 6 -1 11 2 17 5 13 3 -3 4 -12
1 -19z m63 1 c0 -14 -17 -10 -23 5 -4 10 -1 13 9 9 7 -3 14 -9 14 -14z m1315
-137 c-1 -1 -12 -4 -23 -7 -18 -3 -20 -1 -10 14 9 14 14 16 24 7 6 -6 11 -12
9 -14z m-95 2 c0 -8 -19 -13 -24 -6 -3 5 1 9 9 9 8 0 15 -2 15 -3z m-59 -57
c-10 -9 -11 -8 -5 6 3 10 9 15 12 12 3 -3 0 -11 -7 -18z m-29 -22 c-8 -16 -9
-16 -15 -1 -4 10 -3 15 3 11 6 -3 10 -1 10 6 0 7 3 10 6 6 3 -3 2 -13 -4 -22z
m-1002 -85 c8 -5 11 -10 5 -10 -5 0 -17 5 -25 10 -8 5 -10 10 -5 10 6 0 17 -5
25 -10z m650 0 c0 -5 -5 -10 -11 -10 -5 0 -7 5 -4 10 3 6 8 10 11 10 2 0 4 -4
4 -10z m-580 -25 c0 -12 -19 -12 -23 0 -4 9 -1 12 9 8 7 -3 14 -7 14 -8z m194
7 c3 -5 -1 -9 -9 -9 -8 0 -12 4 -9 9 3 4 7 8 9 8 2 0 6 -4 9 -8z m247 -14 c11
-21 11 -22 -4 -9 -10 7 -17 17 -17 22 0 15 9 10 21 -13z m-418 -1 c3 -8 -1
-14 -8 -14 -7 0 -11 6 -8 14 6 16 10 16 16 0z m215 -22 c-3 -3 -9 2 -12 12 -6
14 -5 15 5 6 7 -7 10 -15 7 -18z m106 14 c-2 -4 0 -10 6 -14 5 -3 10 2 10 12
0 15 2 16 10 3 11 -17 9 -19 -20 -25 -12 -2 -20 -2 -16 2 3 3 1 11 -4 18 -7 8
-5 12 5 12 8 0 12 -4 9 -8z m-144 -8 c0 9 3 10 11 2 16 -16 1 -37 -15 -24 -7
6 -15 9 -18 6 -2 -3 -5 2 -5 10 0 11 4 12 14 4 10 -9 13 -8 13 2z"/>
<path d="M1846 1061 c-4 -5 -2 -12 3 -15 5 -4 12 -2 15 3 4 5 2 12 -3 15 -5 4
-12 2 -15 -3z"/>
<path d="M2784 601 c9 -10 13 -22 9 -27 -5 -5 4 2 20 15 27 24 39 43 14 22 -8
-6 -17 -8 -21 -4 -3 4 -14 8 -22 9 -14 2 -14 1 0 -15z"/>
<path d="M2716 4777 c3 -10 9 -15 12 -12 3 3 0 11 -7 18 -10 9 -11 8 -5 -6z"/>
<path d="M3375 4780 c3 -5 8 -10 11 -10 2 0 4 5 4 10 0 6 -5 10 -11 10 -5 0
-7 -4 -4 -10z"/>
<path d="M3071 4727 c-8 -10 -7 -14 2 -14 8 0 14 6 14 14 0 7 -1 13 -2 13 -2
0 -8 -6 -14 -13z"/>
<path d="M2595 4671 c-3 -5 -2 -12 3 -15 5 -3 9 1 9 9 0 17 -3 19 -12 6z"/>
<path d="M2976 4667 c3 -10 9 -15 12 -12 3 3 0 11 -7 18 -10 9 -11 8 -5 -6z"/>
<path d="M2840 4660 c-9 -6 -10 -10 -3 -10 6 0 15 5 18 10 8 12 4 12 -15 0z"/>
<path d="M3003 4655 c0 -8 4 -12 9 -9 5 3 6 10 3 15 -9 13 -12 11 -12 -6z"/>
<path d="M1756 4633 c-6 -14 -5 -15 5 -6 7 7 10 15 7 18 -3 3 -9 -2 -12 -12z"/>
<path d="M2791 4617 c-16 -16 -14 -25 8 -37 14 -7 22 -7 26 0 4 6 3 10 -2 9
-19 -3 -33 2 -33 12 0 5 4 8 8 5 4 -2 14 -1 21 3 10 7 10 9 -2 14 -8 3 -20 0
-26 -6z"/>
<path d="M2945 4600 c-3 -6 1 -7 9 -4 18 7 21 14 7 14 -6 0 -13 -4 -16 -10z"/>
<path d="M3239 4590 c-44 -23 -50 -37 -31 -70 13 -23 13 -23 9 -2 -3 13 0 22
6 22 7 0 6 4 -2 9 -12 8 -7 14 22 31 20 12 37 24 37 26 0 6 -1 5 -41 -16z"/>
<path d="M2890 4580 c0 -5 5 -10 11 -10 5 0 7 5 4 10 -3 6 -8 10 -11 10 -2 0
-4 -4 -4 -10z"/>
<path d="M1692 4535 c4 -4 3 -14 -3 -22 -6 -7 -8 -13 -4 -13 4 0 2 -6 -4 -14
-8 -9 -8 -16 -2 -20 5 -4 12 -2 16 4 4 6 12 7 18 4 9 -5 9 -4 0 6 -9 10 -8 16
5 29 10 9 13 13 8 9 -14 -11 -28 -10 -21 1 3 5 0 13 -7 17 -7 4 -10 4 -6 -1z"/>
<path d="M1500 4516 c13 -16 12 -20 -5 -32 -10 -8 -14 -14 -8 -14 6 0 16 7 23
16 11 12 10 18 -5 32 -18 16 -18 16 -5 -2z"/>
<path d="M2876 4513 c-6 -14 -5 -15 5 -6 7 7 10 15 7 18 -3 3 -9 -2 -12 -12z"/>
<path d="M2813 4475 c0 -8 4 -12 9 -9 5 3 6 10 3 15 -9 13 -12 11 -12 -6z"/>
<path d="M3196 4478 c3 -5 10 -6 15 -3 13 9 11 12 -6 12 -8 0 -12 -4 -9 -9z"/>
<path d="M1477 4449 c7 -7 15 -10 18 -7 3 3 -2 9 -12 12 -14 6 -15 5 -6 -5z"/>
<path d="M2823 4453 c-15 -5 -17 -23 -4 -23 5 0 11 7 15 15 3 8 4 15 3 14 -1
0 -8 -3 -14 -6z"/>
<path d="M3107 4377 c-7 -20 17 -24 29 -5 4 6 3 8 -4 4 -5 -3 -12 -1 -14 6 -3
8 -7 6 -11 -5z"/>
<path d="M2710 4341 c0 -6 4 -13 10 -16 6 -3 7 1 4 9 -7 18 -14 21 -14 7z"/>
<path d="M1695 4329 c-4 -6 -5 -12 -2 -15 2 -3 7 2 10 11 7 17 1 20 -8 4z"/>
<path d="M2075 4291 c-3 -5 -2 -12 3 -15 5 -3 9 1 9 9 0 17 -3 19 -12 6z"/>
<path d="M3075 4290 c-3 -5 -1 -10 4 -10 6 0 11 5 11 10 0 6 -2 10 -4 10 -3 0
-8 -4 -11 -10z"/>
<path d="M2053 4265 c0 -8 4 -12 9 -9 5 3 6 10 3 15 -9 13 -12 11 -12 -6z"/>
<path d="M2343 4255 c0 -8 4 -12 9 -9 5 3 6 10 3 15 -9 13 -12 11 -12 -6z"/>
<path d="M2155 4240 c3 -5 8 -10 11 -10 2 0 4 5 4 10 0 6 -5 10 -11 10 -5 0
-7 -4 -4 -10z"/>
<path d="M2327 4223 c5 -12 3 -14 -7 -8 -8 5 -11 4 -6 -3 3 -5 0 -13 -6 -15
-9 -4 -8 -6 2 -6 22 -1 44 35 25 43 -10 3 -12 0 -8 -11z"/>
<path d="M2030 4220 c-12 -7 -10 -9 7 -7 12 0 19 5 17 9 -6 10 -6 10 -24 -2z"/>
<path d="M2186 4217 c3 -10 9 -15 12 -12 3 3 0 11 -7 18 -10 9 -11 8 -5 -6z"/>
<path d="M1666 4138 c3 -5 10 -6 15 -3 13 9 11 12 -6 12 -8 0 -12 -4 -9 -9z"/>
<path d="M2185 4140 c-3 -6 1 -7 9 -4 18 7 21 14 7 14 -6 0 -13 -4 -16 -10z"/>
<path d="M2194 4099 c-3 -6 -2 -15 3 -20 5 -5 9 -1 9 11 0 23 -2 24 -12 9z"/>
<path d="M1946 4082 c-3 -5 1 -9 9 -9 8 0 12 4 9 9 -3 4 -7 8 -9 8 -2 0 -6 -4
-9 -8z"/>
<path d="M1313 4066 c0 -8 5 -14 11 -13 6 1 10 -4 9 -10 -4 -19 14 -15 21 4 4
10 4 14 0 10 -4 -4 -15 0 -24 8 -14 13 -17 13 -17 1z"/>
<path d="M3055 4060 c-3 -5 -1 -10 4 -10 6 0 11 5 11 10 0 6 -2 10 -4 10 -3 0
-8 -4 -11 -10z"/>
<path d="M1959 4058 c-7 -23 -4 -35 7 -35 9 0 11 4 4 12 -5 7 -7 15 -3 18 3 4
3 7 0 7 -4 0 -7 -1 -8 -2z"/>
<path d="M1635 4012 c-10 -10 -5 -20 12 -26 10 -4 14 -4 10 0 -4 4 -2 12 3 19
7 8 5 12 -5 12 -8 0 -17 -3 -20 -5z"/>
<path d="M1930 3978 c0 -11 12 -10 30 2 12 7 10 9 -8 7 -12 0 -22 -5 -22 -9z"/>
<path d="M2227 3959 c7 -7 15 -10 18 -7 3 3 -2 9 -12 12 -14 6 -15 5 -6 -5z"/>
<path d="M1944 3951 c4 -7 -2 -15 -16 -20 -15 -7 -17 -10 -7 -10 23 -1 44 25
28 35 -8 4 -9 3 -5 -5z"/>
<path d="M2987 3947 c2 -4 -1 -16 -8 -25 -7 -9 -9 -14 -5 -10 5 4 15 3 22 -3
9 -7 12 -6 9 8 -1 10 1 23 6 28 5 7 1 11 -11 11 -10 0 -16 -4 -13 -9z"/>
<path d="M1295 3940 c3 -5 8 -10 11 -10 2 0 4 5 4 10 0 6 -5 10 -11 10 -5 0
-7 -4 -4 -10z"/>
<path d="M916 3913 c-6 -14 -5 -15 5 -6 7 7 10 15 7 18 -3 3 -9 -2 -12 -12z"/>
<path d="M1056 3875 c-3 -8 -1 -17 5 -20 5 -4 8 -14 7 -22 -2 -9 3 -17 10 -19
7 -1 8 0 2 3 -7 3 -6 11 1 24 5 11 6 19 2 18 -19 -3 -27 2 -14 10 8 5 9 11 3
15 -5 3 -12 -1 -16 -9z"/>
<path d="M1308 3873 c7 -3 16 -2 19 1 4 3 -2 6 -13 5 -11 0 -14 -3 -6 -6z"/>
<path d="M1274 3843 c4 -4 16 -8 28 -10 28 -4 18 6 -12 12 -12 2 -20 1 -16 -2z"/>
<path d="M1675 3841 c-3 -5 -2 -12 3 -15 5 -3 9 1 9 9 0 17 -3 19 -12 6z"/>
<path d="M2210 3844 c0 -6 10 -19 22 -30 12 -10 18 -14 15 -7 -4 6 -3 14 3 18
5 3 10 11 10 18 0 6 -6 2 -14 -8 -13 -18 -13 -18 -24 1 -6 10 -12 14 -12 8z"/>
<path d="M1664 3801 c0 -10 5 -18 11 -18 7 0 12 6 12 13 0 7 -5 15 -12 17 -6
3 -11 -3 -11 -12z"/>
<path d="M1102 3760 c0 -14 2 -19 5 -12 2 6 2 18 0 25 -3 6 -5 1 -5 -13z"/>
<path d="M1900 3771 c0 -10 19 -25 25 -20 1 2 -3 10 -11 17 -8 7 -14 8 -14 3z"/>
<path d="M1674 3749 c8 -12 12 -29 9 -38 -4 -13 -3 -14 5 -2 7 9 7 21 2 32 -5
9 -6 19 -3 23 3 3 -1 6 -11 6 -15 0 -16 -2 -2 -21z"/>
<path d="M903 3732 c-1 -22 0 -24 9 -8 6 10 6 22 2 26 -5 5 -10 -3 -11 -18z"/>
<path d="M1275 3730 c-3 -5 -1 -10 4 -10 6 0 11 5 11 10 0 6 -2 10 -4 10 -3 0
-8 -4 -11 -10z"/>
<path d="M1910 3736 c0 -2 7 -7 16 -10 8 -3 12 -2 9 4 -6 10 -25 14 -25 6z"/>
<path d="M1131 3692 c-1 -7 -6 -10 -12 -6 -8 4 -8 0 0 -15 14 -25 23 -28 14
-4 -4 10 -2 14 5 9 6 -3 14 -1 18 5 4 7 3 9 -4 5 -5 -3 -13 0 -15 6 -4 10 -6
10 -6 0z"/>
<path d="M1915 3689 c-10 -15 3 -25 16 -12 7 7 7 13 1 17 -6 3 -14 1 -17 -5z"/>
<path d="M2953 3662 c1 -19 7 -29 19 -29 10 -1 18 2 18 8 0 5 -6 8 -12 7 -8
-2 -13 6 -12 20 1 12 -2 22 -6 22 -4 0 -7 -13 -7 -28z"/>
<path d="M1683 3645 c0 -8 4 -12 9 -9 5 3 16 0 25 -8 12 -9 15 -9 9 -1 -12 22
-43 34 -43 18z"/>
<path d="M1919 3651 c9 -6 10 -11 2 -15 -17 -11 -13 -26 7 -26 13 0 14 2 3 9
-9 6 -10 11 -2 15 13 9 5 26 -12 26 -8 0 -8 -3 2 -9z"/>
<path d="M2955 3610 c3 -5 8 -10 11 -10 2 0 4 5 4 10 0 6 -5 10 -11 10 -5 0
-7 -4 -4 -10z"/>
<path d="M1273 3585 c0 -8 4 -15 9 -15 4 0 8 4 8 9 0 6 -4 12 -8 15 -5 3 -9
-1 -9 -9z"/>
<path d="M1180 3586 c0 -2 8 -10 18 -17 15 -13 16 -12 3 4 -13 16 -21 21 -21
13z"/>
<path d="M1898 3557 c-3 -19 -2 -25 4 -19 6 6 8 18 6 28 -3 14 -5 12 -10 -9z"/>
<path d="M1295 3560 c-3 -5 -1 -10 4 -10 6 0 11 5 11 10 0 6 -2 10 -4 10 -3 0
-8 -4 -11 -10z"/>
<path d="M1195 3529 c-4 -6 -5 -12 -2 -15 2 -3 7 2 10 11 7 17 1 20 -8 4z"/>
<path d="M875 3520 c3 -5 8 -10 11 -10 2 0 4 5 4 10 0 6 -5 10 -11 10 -5 0 -7
-4 -4 -10z"/>
<path d="M1216 3522 c-3 -5 1 -9 9 -9 8 0 12 4 9 9 -3 4 -7 8 -9 8 -2 0 -6 -4
-9 -8z"/>
<path d="M2953 3514 c0 -7 6 -10 14 -7 7 3 13 8 13 12 0 4 -6 8 -13 8 -8 0
-14 -6 -14 -13z"/>
<path d="M1256 3502 c-3 -5 1 -9 9 -9 8 0 12 4 9 9 -3 4 -7 8 -9 8 -2 0 -6 -4
-9 -8z"/>
<path d="M1299 3505 c-1 -3 -2 -10 -3 -15 0 -6 -8 -15 -16 -20 -12 -7 -11 -9
6 -8 14 1 20 9 20 25 0 21 -4 31 -7 18z"/>
<path d="M2965 3460 c-3 -5 -1 -10 4 -10 6 0 11 5 11 10 0 6 -2 10 -4 10 -3 0
-8 -4 -11 -10z"/>
<path d="M1931 3434 c0 -11 3 -14 6 -6 3 7 2 16 -1 19 -3 4 -6 -2 -5 -13z"/>
<path d="M1235 3430 c-3 -5 -1 -10 4 -10 6 0 11 5 11 10 0 6 -2 10 -4 10 -3 0
-8 -4 -11 -10z"/>
<path d="M1818 3428 c5 -5 16 -8 23 -6 8 3 3 7 -10 11 -17 4 -21 3 -13 -5z"/>
<path d="M2959 3423 c-13 -17 -13 -17 6 -3 11 8 22 16 24 17 2 2 0 3 -6 3 -6
0 -17 -8 -24 -17z"/>
<path d="M890 3379 c0 -5 5 -7 10 -4 6 3 10 8 10 11 0 2 -4 4 -10 4 -5 0 -10
-5 -10 -11z"/>
<path d="M1276 3368 c3 -4 11 -5 19 -1 21 7 19 12 -4 10 -11 0 -18 -5 -15 -9z"/>
<path d="M1870 3316 c0 -2 9 -6 20 -9 11 -3 18 -1 14 4 -5 9 -34 13 -34 5z"/>
<path d="M1905 3273 c-5 -14 -4 -15 6 -6 10 10 15 9 26 -5 13 -15 13 -15 3 6
-13 26 -25 28 -35 5z"/>
<path d="M2966 3281 c-9 -14 26 -23 38 -11 8 8 6 9 -8 4 -13 -5 -17 -4 -12 4
4 7 3 12 -3 12 -5 0 -12 -4 -15 -9z"/>
<path d="M933 3237 c14 -11 15 -16 5 -20 -10 -4 -10 -6 1 -6 11 -1 11 -4 1
-16 -7 -9 -10 -18 -6 -22 3 -3 6 0 6 8 0 12 2 11 11 -1 9 -13 10 -12 5 2 -3
10 -1 20 5 23 12 8 3 22 -24 35 -20 10 -21 10 -4 -3z"/>
<path d="M550 3226 c0 -2 7 -7 16 -10 8 -3 12 -2 9 4 -6 10 -25 14 -25 6z"/>
<path d="M1956 3205 c4 -8 8 -15 10 -15 2 0 4 7 4 15 0 8 -4 15 -10 15 -5 0
-7 -7 -4 -15z"/>
<path d="M2003 3198 c4 -10 -1 -19 -11 -23 -16 -6 -16 -7 0 -19 10 -7 14 -17
10 -21 -4 -5 -1 -4 7 0 13 7 12 10 -1 19 -14 8 -14 12 -2 20 10 8 11 15 3 26
-9 13 -10 13 -6 -2z"/>
<path d="M4114 3160 c0 -10 2 -17 5 -15 2 3 9 0 16 -5 8 -7 12 -5 12 5 0 8 -4
12 -9 9 -4 -3 -8 2 -8 10 0 9 -4 16 -8 16 -4 0 -8 -9 -8 -20z"/>
<path d="M3019 3148 c-5 -19 -8 -50 -4 -46 7 7 15 48 9 48 -2 0 -4 -1 -5 -2z"/>
<path d="M929 3117 c6 -8 7 -18 3 -22 -4 -5 -1 -5 6 -1 10 6 10 11 1 22 -6 8
-14 14 -16 14 -3 0 0 -6 6 -13z"/>
<path d="M4116 3115 c4 -8 8 -15 10 -15 2 0 4 7 4 15 0 8 -4 15 -10 15 -5 0
-7 -7 -4 -15z"/>
<path d="M560 3110 c-12 -8 -12 -11 3 -28 13 -14 14 -21 4 -31 -9 -10 -9 -12
3 -9 8 2 14 -3 12 -10 -1 -8 2 -11 7 -8 10 7 9 25 -2 44 -5 6 -5 16 -2 22 4 6
-1 7 -12 3 -16 -6 -16 -5 -4 10 15 19 13 21 -9 7z"/>
<path d="M4315 3091 c-3 -5 -2 -12 3 -15 5 -3 9 1 9 9 0 17 -3 19 -12 6z"/>
<path d="M956 3067 c3 -10 9 -15 12 -12 3 3 0 11 -7 18 -10 9 -11 8 -5 -6z"/>
<path d="M4105 3059 c-3 -4 2 -6 10 -5 21 3 28 13 10 13 -9 0 -18 -4 -20 -8z"/>
<path d="M4150 3050 c0 -5 5 -10 11 -10 5 0 7 5 4 10 -3 6 -8 10 -11 10 -2 0
-4 -4 -4 -10z"/>
<path d="M851 3034 c0 -11 3 -14 6 -6 3 7 2 16 -1 19 -3 4 -6 -2 -5 -13z"/>
<path d="M973 3025 c0 -8 4 -15 9 -15 4 0 8 4 8 9 0 6 -4 12 -8 15 -5 3 -9 -1
-9 -9z"/>
<path d="M3030 3015 c-13 -16 -6 -35 13 -34 9 0 9 2 0 6 -7 2 -13 9 -13 14 0
6 4 8 8 5 5 -3 9 1 9 9 0 19 -2 19 -17 0z"/>
<path d="M4395 2990 c10 -11 20 -20 23 -20 3 0 -3 9 -13 20 -10 11 -20 20 -23
20 -3 0 3 -9 13 -20z"/>
<path d="M585 2951 c-6 -11 13 -26 22 -17 4 3 1 6 -6 6 -7 0 -9 5 -6 10 3 6 4
10 1 10 -3 0 -7 -4 -11 -9z"/>
<path d="M4453 2883 c4 -3 1 -13 -6 -22 -11 -14 -10 -14 5 -2 16 12 16 31 1
31 -4 0 -3 -3 0 -7z"/>
<path d="M4156 2862 c-2 -4 -1 -14 4 -22 7 -11 9 -9 7 8 -1 24 -3 26 -11 14z"/>
<path d="M4175 2789 c-3 -4 2 -6 10 -5 21 3 28 13 10 13 -9 0 -18 -4 -20 -8z"/>
<path d="M636 2722 c-2 -4 4 -9 15 -9 11 -1 17 2 14 8 -7 11 -22 12 -29 1z"/>
<path d="M3145 2721 c-3 -5 -2 -12 3 -15 5 -3 9 1 9 9 0 17 -3 19 -12 6z"/>
<path d="M4505 2700 c3 -5 8 -10 11 -10 2 0 4 5 4 10 0 6 -5 10 -11 10 -5 0
-7 -4 -4 -10z"/>
<path d="M656 2654 c-9 -23 -4 -24 17 -2 13 14 14 18 3 18 -8 0 -17 -7 -20
-16z"/>
<path d="M4564 2575 c-3 -8 -4 -20 -2 -27 3 -7 7 -1 10 15 6 29 1 36 -8 12z"/>
<path d="M3318 2493 c7 -3 16 -2 19 1 4 3 -2 6 -13 5 -11 0 -14 -3 -6 -6z"/>
<path d="M3925 2480 c-3 -5 -1 -10 4 -10 6 0 11 5 11 10 0 6 -2 10 -4 10 -3 0
-8 -4 -11 -10z"/>
<path d="M3390 2439 c0 -5 5 -7 10 -4 6 3 10 8 10 11 0 2 -4 4 -10 4 -5 0 -10
-5 -10 -11z"/>
<path d="M3855 2440 c-3 -5 -1 -10 4 -10 6 0 11 5 11 10 0 6 -2 10 -4 10 -3 0
-8 -4 -11 -10z"/>
<path d="M4591 2331 c-15 -11 -18 -18 -8 -18 8 0 19 9 26 19 14 22 12 22 -18
-1z"/>
<path d="M806 2323 c-6 -14 -5 -15 5 -6 7 7 10 15 7 18 -3 3 -9 -2 -12 -12z"/>
<path d="M4615 2300 c-3 -5 -1 -10 4 -10 6 0 11 5 11 10 0 6 -2 10 -4 10 -3 0
-8 -4 -11 -10z"/>
<path d="M869 2272 c-1 -4 -1 -10 0 -14 0 -5 -3 -8 -7 -8 -5 0 -9 -7 -9 -16 0
-15 1 -15 12 0 13 17 30 23 20 6 -3 -5 -1 -10 5 -10 6 0 8 -5 5 -10 -4 -6 -10
-8 -14 -6 -3 3 -7 -4 -7 -15 0 -19 1 -18 19 3 11 14 17 17 15 8 -2 -9 2 -17 7
-18 16 -3 11 22 -8 41 -10 10 -15 22 -12 26 2 5 -2 11 -10 15 -8 3 -16 2 -16
-2z"/>
<path d="M917 2159 c7 -7 15 -10 18 -7 3 3 -2 9 -12 12 -14 6 -15 5 -6 -5z"/>
<path d="M573 2143 c4 -3 -1 -12 -11 -20 -15 -13 -15 -13 6 -3 19 9 23 30 5
30 -4 0 -3 -3 0 -7z"/>
<path d="M700 2121 c0 -10 19 -25 25 -20 1 2 -3 10 -11 17 -8 7 -14 8 -14 3z"/>
<path d="M990 2060 c0 -5 5 -10 11 -10 5 0 7 5 4 10 -3 6 -8 10 -11 10 -2 0
-4 -4 -4 -10z"/>
<path d="M4567 1956 c-4 -10 -1 -13 9 -9 15 6 19 23 5 23 -5 0 -11 -7 -14 -14z"/>
<path d="M1033 1925 c0 -8 4 -12 9 -9 5 3 6 10 3 15 -9 13 -12 11 -12 -6z"/>
<path d="M1137 1916 c-4 -10 -1 -13 8 -9 8 3 12 9 9 14 -7 12 -11 11 -17 -5z"/>
<path d="M1175 1899 c4 -5 13 -9 21 -9 17 0 18 -12 2 -29 -7 -8 -1 -6 15 4 15
9 27 16 28 14 0 -2 2 -12 4 -22 5 -26 11 -31 18 -14 3 8 -3 24 -13 35 -10 11
-16 24 -12 28 4 5 -1 2 -10 -5 -10 -7 -18 -9 -18 -4 0 5 -9 9 -20 10 -11 1
-18 -2 -15 -8z"/>
<path d="M626 1882 c-3 -5 1 -9 9 -9 8 0 12 4 9 9 -3 4 -7 8 -9 8 -2 0 -6 -4
-9 -8z"/>
<path d="M1130 1881 c0 -6 4 -13 10 -16 6 -3 7 1 4 9 -7 18 -14 21 -14 7z"/>
<path d="M1160 1880 c8 -5 20 -10 25 -10 6 0 3 5 -5 10 -8 5 -19 10 -25 10 -5
0 -3 -5 5 -10z"/>
<path d="M4541 1844 c-1 -6 5 -17 12 -23 10 -8 14 -7 14 4 0 8 -4 12 -8 9 -4
-2 -10 2 -12 8 -4 8 -6 9 -6 2z"/>
<path d="M4530 1733 c-30 -12 -48 -68 -24 -77 8 -3 16 0 20 6 4 7 3 8 -4 4 -7
-4 -12 -1 -12 8 0 10 6 13 18 10 13 -4 14 -3 4 4 -18 12 -17 21 5 38 19 14 17
16 -7 7z"/>
<path d="M4474 1594 c-18 -14 -18 -14 6 -3 31 14 36 19 24 19 -6 0 -19 -7 -30
-16z"/>
<path d="M970 1460 c0 -5 5 -10 11 -10 5 0 7 5 4 10 -3 6 -8 10 -11 10 -2 0
-4 -4 -4 -10z"/>
<path d="M1020 1435 c-11 -13 -10 -14 4 -9 9 3 16 10 16 15 0 13 -6 11 -20 -6z"/>
<path d="M1050 1445 c0 -16 13 -31 33 -38 10 -4 15 -11 12 -17 -4 -6 -11 -7
-17 -4 -7 4 -8 2 -4 -5 6 -9 11 -9 21 -1 18 15 12 45 -9 45 -9 0 -21 7 -26 15
-5 8 -10 11 -10 5z"/>
<path d="M4427 1439 c7 -7 15 -10 18 -7 3 3 -2 9 -12 12 -14 6 -15 5 -6 -5z"/>
<path d="M1030 1416 c0 -2 8 -10 18 -17 15 -13 16 -12 3 4 -13 16 -21 21 -21
13z"/>
<path d="M4385 1373 c-10 -16 -12 -23 -5 -16 7 6 18 10 24 9 6 -2 8 -1 4 1
-15 9 -8 25 8 19 8 -3 12 -2 9 4 -10 17 -22 11 -40 -17z"/>
<path d="M4399 1313 c-13 -16 -12 -17 4 -4 9 7 17 15 17 17 0 8 -8 3 -21 -13z"/>
<path d="M1370 1240 c0 -5 5 -10 11 -10 5 0 7 5 4 10 -3 6 -8 10 -11 10 -2 0
-4 -4 -4 -10z"/>
<path d="M4273 1161 c-10 -16 -9 -19 3 -17 8 1 20 8 27 16 8 8 8 11 0 6 -6 -3
-13 -2 -15 4 -2 6 -8 2 -15 -9z"/>
<path d="M4246 1121 c-3 -5 1 -11 9 -14 9 -4 12 -1 8 9 -6 16 -10 17 -17 5z"/>
<path d="M1615 1100 c3 -5 8 -10 11 -10 2 0 4 5 4 10 0 6 -5 10 -11 10 -5 0
-7 -4 -4 -10z"/>
<path d="M1775 1090 c-4 -6 -11 -7 -17 -4 -7 4 -8 2 -4 -4 4 -7 2 -12 -5 -12
-7 0 -9 -3 -6 -7 4 -3 15 1 25 10 10 10 22 14 27 10 4 -5 5 -2 1 5 -9 15 -13
15 -21 2z"/>
<path d="M4255 1081 c-3 -5 -2 -12 3 -15 5 -3 9 1 9 9 0 17 -3 19 -12 6z"/>
<path d="M4230 1050 c0 -5 5 -10 11 -10 5 0 7 5 4 10 -3 6 -8 10 -11 10 -2 0
-4 -4 -4 -10z"/>
<path d="M1133 1011 c0 -11 5 -18 9 -15 4 3 5 11 1 19 -7 21 -12 19 -10 -4z"/>
<path d="M1150 961 c0 -6 4 -13 10 -16 6 -3 7 1 4 9 -7 18 -14 21 -14 7z"/>
<path d="M1230 923 c0 -8 5 -11 12 -7 7 5 9 2 5 -9 -4 -11 -2 -14 7 -11 18 7
9 41 -10 41 -8 0 -14 -7 -14 -14z"/>
<path d="M1194 902 c4 -3 14 -7 22 -8 9 -1 13 0 10 4 -4 3 -14 7 -22 8 -9 1
-13 0 -10 -4z"/>
<path d="M1270 856 c0 -2 8 -10 18 -17 15 -13 16 -12 3 4 -13 16 -21 21 -21
13z"/>
<path d="M1330 846 c0 -9 5 -16 10 -16 6 0 10 4 10 9 0 6 -4 13 -10 16 -5 3
-10 -1 -10 -9z"/>
<path d="M4025 760 c-3 -6 1 -7 9 -4 18 7 21 14 7 14 -6 0 -13 -4 -16 -10z"/>
<path d="M1573 713 c4 -6 4 -13 0 -16 -5 -2 -3 -2 4 -1 6 2 17 -4 24 -12 9
-12 15 -12 27 -2 14 11 15 10 8 -7 -5 -15 -4 -17 5 -8 18 18 1 37 -19 21 -13
-11 -15 -10 -9 5 4 11 3 16 -4 12 -5 -4 -17 -1 -26 7 -10 7 -14 8 -10 1z"/>
<path d="M3955 691 c-3 -5 -2 -12 3 -15 5 -3 9 1 9 9 0 17 -3 19 -12 6z"/>
<path d="M3860 660 c-7 -16 -15 -30 -19 -30 -13 0 -31 -39 -21 -45 6 -4 9 -2
8 3 -2 5 8 23 22 38 14 16 26 37 28 47 4 26 -4 20 -18 -13z"/>
<path d="M3910 671 c0 -6 4 -13 10 -16 6 -3 7 1 4 9 -7 18 -14 21 -14 7z"/>
<path d="M1659 648 c14 -19 32 -15 30 5 0 8 -2 8 -6 -1 -4 -10 -8 -10 -21 0
-15 12 -16 11 -3 -4z"/>
<path d="M1800 635 c-10 -13 -11 -18 -1 -28 10 -9 11 -8 5 8 -7 17 -6 18 8 7
9 -7 22 -11 29 -10 8 2 13 -3 12 -9 -4 -19 5 -16 16 5 8 16 6 18 -12 17 -29
-3 -48 5 -41 16 9 15 -3 10 -16 -6z"/>
<path d="M1970 599 c-7 -11 -9 -23 -6 -27 3 -3 6 1 6 9 0 12 2 12 9 0 6 -9 9
-5 9 13 0 31 -4 32 -18 5z"/>
<path d="M2666 598 c3 -4 12 -8 20 -8 8 0 14 4 14 8 0 4 -9 8 -19 8 -11 0 -17
-4 -15 -8z"/>
<path d="M2090 578 c0 -4 4 -8 9 -8 5 0 12 -8 14 -17 3 -10 4 -7 4 8 -1 22
-27 39 -27 17z"/>
<path d="M2396 581 c-4 -6 -11 -9 -16 -6 -5 3 -11 1 -14 -4 -10 -15 15 -25 25
-10 8 12 11 12 19 -1 5 -8 10 -10 10 -5 0 20 -17 38 -24 26z"/>
<path d="M2016 563 c-6 -14 -5 -15 5 -6 7 7 10 15 7 18 -3 3 -9 -2 -12 -12z"/>
<path d="M2439 578 c-8 -26 -5 -36 9 -31 11 5 13 3 7 -7 -5 -9 -4 -11 3 -6 9
5 9 13 2 27 -9 17 -18 24 -21 17z"/>
<path d="M3735 571 c-3 -5 -1 -12 5 -16 5 -3 10 1 10 9 0 18 -6 21 -15 7z"/>
<path d="M2060 566 c0 -2 7 -7 16 -10 8 -3 12 -2 9 4 -6 10 -25 14 -25 6z"/>
<path d="M2575 560 c3 -5 8 -10 11 -10 2 0 4 5 4 10 0 6 -5 10 -11 10 -5 0 -7
-4 -4 -10z"/>
<path d="M2553 545 c0 -8 4 -12 9 -9 5 3 6 10 3 15 -9 13 -12 11 -12 -6z"/>
<path d="M2340 540 c-9 -6 -10 -10 -3 -10 6 0 15 5 18 10 8 12 4 12 -15 0z"/>
<path d="M3299 336 c-7 -11 -6 -46 1 -46 6 0 9 6 8 13 -2 6 3 11 10 10 6 -2
12 1 12 7 0 5 8 7 18 3 9 -3 14 -3 10 1 -5 6 -56 16 -59 12z"/>
<path d="M2136 322 c-3 -5 1 -9 9 -9 8 0 12 4 9 9 -3 4 -7 8 -9 8 -2 0 -6 -4
-9 -8z"/>
<path d="M3353 295 c0 -8 4 -12 9 -9 5 3 6 10 3 15 -9 13 -12 11 -12 -6z"/>
<path d="M2136 273 c-6 -14 -5 -15 5 -6 7 7 10 15 7 18 -3 3 -9 -2 -12 -12z"/>
<path d="M3096 266 c7 -19 20 -21 30 -3 4 6 4 9 -1 5 -4 -4 -14 -3 -22 4 -11
8 -12 7 -7 -6z"/>
<path d="M3235 269 c-4 -6 -5 -12 -2 -15 2 -3 7 2 10 11 7 17 1 20 -8 4z"/>
<path d="M2319 247 c-8 -6 -12 -11 -10 -9 2 1 14 -6 25 -15 20 -17 20 -17 7 0
-20 26 -8 30 17 7 12 -12 22 -17 22 -13 0 11 -20 40 -20 29 0 -5 -6 -3 -13 3
-10 8 -17 7 -28 -2z"/>
<path d="M3042 251 c-11 -7 -10 -10 3 -15 9 -3 24 -1 33 4 14 9 12 10 -7 4
-16 -4 -21 -3 -17 5 8 13 6 14 -12 2z"/>
<path d="M2206 238 c3 -5 10 -6 15 -3 13 9 11 12 -6 12 -8 0 -12 -4 -9 -9z"/>
<path d="M2386 240 c6 -8 10 -23 9 -32 -3 -15 0 -16 16 -8 24 13 25 22 2 13
-16 -6 -17 -5 -3 13 8 10 10 16 6 12 -5 -4 -16 -2 -25 5 -14 10 -14 10 -5 -3z"/>
<path d="M2854 222 c0 -11 9 -18 24 -19 13 0 22 0 20 1 -2 0 -12 9 -23 18 -20
16 -21 16 -21 0z"/>
<path d="M3106 218 c3 -5 10 -6 15 -3 13 9 11 12 -6 12 -8 0 -12 -4 -9 -9z"/>
<path d="M2468 203 c6 -2 9 -10 6 -15 -4 -7 -2 -8 5 -4 13 9 5 26 -12 25 -9 0
-8 -2 1 -6z"/>
<path d="M2592 191 c-11 -7 -11 -9 0 -14 9 -3 15 1 15 9 0 8 -1 14 -1 14 -1 0
-7 -4 -14 -9z"/>
<path d="M2752 191 c-11 -7 -11 -9 0 -14 9 -3 15 1 15 9 0 8 -1 14 -1 14 -1 0
-7 -4 -14 -9z"/>
<path d="M2867 179 c7 -7 15 -10 18 -7 3 3 -2 9 -12 12 -14 6 -15 5 -6 -5z"/>
</g>
</svg>
