<?xml version="1.0" standalone="no"?>
<!DOCTYPE svg PUBLIC "-//W3C//DTD SVG 20010904//EN"
 "http://www.w3.org/TR/2001/REC-SVG-20010904/DTD/svg10.dtd">
<svg version="1.0" xmlns="http://www.w3.org/2000/svg"
 width="512.000000pt" height="512.000000pt" viewBox="0 0 512.000000 512.000000"
 preserveAspectRatio="xMidYMid meet">
<metadata>
Created by potrace 1.14, written by Peter Selinger 2001-2017
</metadata>
<g transform="translate(0.000000,512.000000) scale(0.100000,-0.100000)"
fill="#000000" stroke="none">
<path d="M3570 4649 c-92 -9 -167 -23 -177 -33 -4 -3 2 -6 12 -6 17 0 17 -1 0
-20 -10 -11 -30 -20 -44 -20 l-26 0 25 20 25 20 -32 0 c-18 0 -42 -4 -55 -9
-13 -5 -86 -33 -163 -61 -204 -75 -246 -93 -252 -108 -8 -18 82 -108 132 -134
22 -11 63 -37 90 -58 64 -49 235 -146 380 -216 111 -53 165 -96 165 -132 0 -9
7 -93 15 -187 16 -190 18 -241 6 -212 -6 17 -8 17 -20 4 -8 -11 -13 -63 -14
-169 l-2 -153 -70 0 c-82 0 -153 -30 -241 -101 -30 -24 -56 -44 -59 -44 -3 0
-5 10 -5 23 -1 21 -1 21 -14 4 -9 -12 -16 -14 -21 -7 -8 12 11 177 31 275 8
38 17 118 21 176 5 91 3 116 -15 176 -26 85 -83 154 -164 198 -50 28 -60 30
-158 30 -111 -1 -157 -7 -258 -32 -97 -25 -98 -33 -11 -116 41 -40 61 -60 44
-44 -17 15 -35 27 -41 27 -5 0 -15 -28 -21 -62 -7 -35 -15 -72 -18 -84 -5 -17
2 -26 39 -48 25 -14 59 -29 75 -32 17 -4 36 -13 42 -20 14 -17 36 -18 42 -1 3
6 6 0 6 -15 1 -34 -15 -45 -37 -25 -9 8 -41 22 -70 31 -29 8 -79 35 -111 60
-41 32 -69 46 -90 46 -17 0 -31 -4 -31 -10 0 -17 -29 -11 -50 10 -24 24 -48
26 -56 5 -8 -20 -74 -21 -74 0 0 8 9 19 20 25 29 16 15 30 -29 30 -43 0 -96
23 -105 46 -3 9 5 48 19 87 36 99 46 280 21 359 -43 134 -107 218 -210 277
-51 29 -61 32 -81 21 -20 -11 -32 -8 -94 26 -39 21 -71 41 -71 45 0 4 -24 16
-52 26 -72 25 -241 24 -318 -2 -71 -23 -143 -59 -160 -80 -8 -10 -25 -21 -38
-26 -17 -6 -22 -15 -20 -31 2 -17 26 -35 100 -73 54 -28 105 -61 115 -75 9
-14 46 -57 83 -96 59 -63 68 -77 80 -133 9 -41 11 -93 7 -154 -9 -124 -52
-413 -78 -515 -16 -65 -18 -86 -9 -97 10 -12 9 -20 -5 -41 -14 -22 -22 -25
-47 -20 -19 4 -48 -2 -88 -19 -191 -80 -605 -218 -783 -260 -135 -32 -171 -49
-158 -74 11 -20 199 -188 237 -211 13 -8 24 -18 24 -22 0 -13 70 -49 81 -42 8
4 9 3 5 -5 -10 -16 74 -52 241 -102 154 -46 225 -80 259 -124 l23 -30 -24 -70
c-13 -39 -21 -82 -18 -96 6 -32 -15 -74 -56 -114 -27 -25 -35 -28 -51 -17 -15
9 -27 8 -57 -5 -29 -12 -57 -14 -119 -10 -81 6 -108 -2 -98 -28 3 -6 -1 -17
-8 -23 -16 -12 -7 -219 12 -312 44 -204 126 -349 255 -448 17 -13 24 -20 16
-16 -9 4 -12 3 -7 -4 4 -6 13 -9 20 -6 8 3 17 0 22 -7 4 -8 3 -10 -4 -5 -7 4
-12 5 -12 2 0 -3 10 -10 21 -17 15 -7 19 -8 15 0 -5 7 -1 9 8 5 9 -3 14 -10
11 -14 -11 -18 107 -53 273 -81 134 -23 230 -33 392 -39 314 -13 515 -50 559
-103 7 -9 17 -14 22 -11 5 3 8 2 7 -3 -4 -15 30 -67 64 -100 48 -45 139 -79
260 -97 106 -16 217 -21 205 -10 -3 3 -75 15 -159 25 -84 11 -157 24 -162 30
-6 6 -4 9 6 9 24 0 73 45 92 83 32 68 136 435 188 665 5 23 14 42 19 42 5 0 9
12 9 28 l1 27 14 -32 c8 -18 18 -33 23 -33 24 0 105 76 121 112 l17 40 46 -94
c25 -52 64 -124 87 -161 46 -76 47 -77 26 -77 -9 0 -15 -9 -15 -22 0 -13 -7
-36 -15 -52 -8 -15 -15 -46 -15 -68 l0 -39 26 20 c61 48 124 9 234 -145 44
-62 119 -154 167 -206 94 -101 232 -233 219 -208 -5 8 4 1 20 -16 34 -37 112
-96 100 -75 -6 10 1 8 22 -4 17 -10 29 -22 26 -27 -7 -10 -6 -11 106 -14 52
-1 127 -6 166 -10 64 -6 72 -5 77 12 4 11 10 24 13 31 6 13 -55 43 -87 43 -25
0 -24 22 3 90 19 47 22 73 22 185 -1 144 -16 243 -94 635 -116 578 -169 992
-184 1435 -3 88 -15 270 -26 405 -30 358 -35 590 -19 740 17 154 17 242 0 343
-7 44 -11 81 -9 83 2 1 27 -9 56 -23 53 -26 81 -25 46 2 -50 39 -221 151 -247
163 -27 11 -32 10 -54 -14 l-24 -26 -22 20 c-36 33 -100 62 -132 61 -16 -1
-68 -6 -115 -10z m375 -109 c0 -33 -40 -41 -50 -11 -9 28 2 43 28 39 16 -2 22
-10 22 -28z m-75 10 c0 -5 -7 -7 -15 -4 -8 4 -15 8 -15 10 0 2 7 4 15 4 8 0
15 -4 15 -10z m-605 -30 c-3 -5 -10 -10 -16 -10 -5 0 -9 5 -9 10 0 6 7 10 16
10 8 0 12 -4 9 -10z m-1735 -51 c0 -5 -7 -9 -15 -9 -15 0 -20 12 -9 23 8 8 24
-1 24 -14z m-92 -21 c24 -24 13 -38 -30 -38 -62 0 -78 14 -42 34 35 19 56 20
72 4z m1578 -13 c-16 -16 -36 -20 -36 -7 0 14 12 22 32 22 17 0 18 -2 4 -15z
m998 -11 c6 -15 1 -90 -10 -141 -8 -43 -22 -23 -27 40 -3 34 -9 74 -13 90 -6
24 -4 27 19 27 14 0 28 -7 31 -16z m-1900 -93 c27 -28 31 -61 7 -61 -17 0 -68
49 -74 70 -8 31 34 26 67 -9z m-639 -121 c27 -27 47 -50 44 -50 -3 0 -27 23
-54 50 -27 28 -47 50 -44 50 3 0 27 -22 54 -50z m638 26 c42 -18 72 -52 87
-100 14 -43 8 -130 -11 -152 -33 -39 -56 7 -66 128 -5 69 -9 78 -34 97 -50 37
-35 52 24 27z m1022 -4 c-3 -3 -11 0 -18 7 -9 10 -8 11 6 5 10 -3 15 -9 12
-12z m130 -67 c14 -11 7 -10 -22 4 -23 12 -45 26 -48 32 -8 13 41 -12 70 -36z
m354 -17 c4 -13 11 -50 13 -84 l6 -61 -47 8 c-53 10 -130 37 -179 63 -39 20
-38 31 1 17 41 -16 39 1 -4 34 -21 17 -38 33 -39 38 0 4 54 7 120 7 116 0 121
-1 129 -22z m360 -180 c-2 -90 4 -271 14 -403 29 -398 46 -651 57 -830 6 -93
13 -177 15 -185 2 -8 9 -76 15 -150 6 -74 15 -155 20 -180 5 -25 19 -112 31
-195 26 -182 53 -341 84 -505 50 -259 73 -404 84 -535 8 -100 6 -183 -4 -193
-15 -15 -23 25 -28 140 -3 73 -10 153 -16 178 -5 25 -17 86 -26 135 -9 50 -20
110 -25 135 -10 47 -34 188 -51 300 -6 36 -15 88 -20 115 -5 28 -14 84 -19
125 -5 41 -15 107 -21 145 -35 230 -83 733 -110 1145 -5 85 -14 209 -19 275
-11 144 -13 426 -4 553 11 152 26 106 23 -70z m-614 134 c-3 -3 -11 0 -18 7
-9 10 -8 11 6 5 10 -3 15 -9 12 -12z m-1644 -209 c-1 -58 -3 -109 -6 -113 -3
-5 -9 -55 -15 -112 -25 -259 -78 -469 -136 -537 -43 -50 -74 -66 -248 -133
-323 -124 -599 -203 -676 -193 -74 10 -90 16 -90 35 0 13 17 21 72 35 39 9
142 41 227 70 230 77 379 125 391 125 6 0 8 -4 5 -10 -3 -5 -15 -10 -26 -10
-10 0 -19 -4 -19 -10 0 -5 -5 -10 -11 -10 -10 0 -48 -15 -114 -45 -16 -8 -55
-22 -85 -31 -30 -9 -59 -21 -64 -25 -6 -5 -19 -9 -30 -9 -12 0 -30 -7 -40 -15
-11 -8 -27 -15 -37 -15 -9 0 -30 -7 -45 -15 -16 -8 -37 -15 -46 -15 -10 0 -18
-4 -18 -10 0 -16 56 -12 70 5 7 8 23 15 36 15 14 0 32 4 42 9 39 22 86 41 98
41 7 0 61 18 121 41 362 137 411 163 457 242 57 97 146 580 146 797 l0 65 21
-33 c19 -29 21 -47 20 -139z m1020 -58 c0 -5 -9 -11 -21 -13 -20 -3 -27 8 -13
22 10 9 34 3 34 -9z m369 -40 c9 -11 10 -19 2 -27 -14 -14 -32 -1 -32 23 0 23
13 25 30 4z m-1011 -151 c28 -36 26 -48 -8 -60 -37 -15 -61 -1 -61 34 0 54 37
67 69 26z m1085 -6 c10 -29 0 -98 -14 -98 -6 0 -10 12 -10 28 0 15 -3 44 -7
66 -5 31 -3 38 8 34 8 -3 18 -16 23 -30z m-887 -85 c6 -16 -49 -43 -86 -43
-40 0 -50 19 -21 42 26 21 101 22 107 1z m275 -30 c10 -9 18 -24 18 -33 0 -10
7 -20 15 -24 8 -3 15 -13 15 -21 0 -12 -8 -15 -32 -13 -28 2 -32 7 -30 26 2
12 -1 22 -6 22 -11 0 -23 40 -16 52 8 12 15 10 36 -9z m-315 -49 c-3 -3 -12
-4 -19 -1 -8 3 -5 6 6 6 11 1 17 -2 13 -5z m676 -247 c-1 -111 -7 -251 -13
-312 -6 -60 -17 -175 -25 -255 -8 -80 -22 -217 -30 -305 -16 -167 -26 -242
-51 -385 -34 -195 -45 -246 -80 -400 -9 -36 -20 -85 -26 -110 -28 -125 -63
-204 -115 -260 -57 -62 -112 -97 -137 -87 -29 11 -17 36 27 55 51 23 112 88
138 149 17 40 65 214 82 298 4 17 14 62 22 100 9 39 20 93 25 120 4 28 17 102
28 165 29 169 61 437 87 730 8 96 20 225 25 286 6 60 10 176 10 256 0 155 5
187 24 168 7 -8 10 -75 9 -213z m-163 93 l65 -5 3 -150 c1 -82 -2 -188 -6
-235 -9 -79 -9 -81 -11 -27 0 31 -3 57 -6 57 -2 0 -35 -20 -72 -44 -68 -43
-233 -126 -252 -126 -14 0 -137 -116 -163 -154 -13 -18 8 -3 50 36 94 89 258
172 338 173 42 0 57 -5 78 -24 30 -28 33 -70 15 -193 -5 -40 -16 -136 -24
-213 -15 -156 -49 -364 -101 -620 -19 -93 -38 -190 -43 -215 -10 -46 -38 -120
-46 -120 -2 0 -15 11 -28 24 -14 14 -42 27 -63 31 -22 3 -46 10 -54 14 -15 8
-75 100 -69 106 2 2 38 -5 79 -16 91 -23 150 -25 150 -5 0 7 -17 18 -37 24
-21 5 -69 22 -108 36 l-70 27 58 -5 c31 -2 57 -1 57 3 0 4 -19 18 -42 31 -24
13 -59 36 -80 52 -21 17 -42 26 -52 22 -29 -11 -17 15 54 112 39 53 70 101 70
105 0 5 5 9 10 9 6 0 10 -9 10 -19 0 -19 1 -19 40 0 21 10 44 19 50 19 18 0
11 38 -14 65 -28 30 -48 25 -62 -13 -8 -22 -10 -16 -10 39 0 132 -71 251 -183
307 l-58 29 13 48 c12 49 12 49 -7 24 -10 -13 -19 -34 -19 -46 0 -20 -5 -22
-117 -27 -65 -2 -137 -8 -161 -12 l-43 -6 6 36 c6 27 4 37 -8 41 -9 4 -17 27
-21 66 -4 32 -10 59 -14 59 -10 0 -36 -31 -47 -55 -7 -17 -9 -18 -12 -4 -9 38
120 236 190 292 23 19 94 61 157 94 180 93 313 186 430 299 93 90 106 100 110
81 5 -19 15 -23 70 -27z m943 -181 c-4 -4 -15 -4 -23 1 -13 8 -12 10 3 10 9 0
18 8 18 18 1 15 2 15 6 -2 3 -10 1 -22 -4 -27z m-203 -35 c0 -18 -26 -46 -70
-74 -65 -42 -139 -125 -176 -198 -47 -93 -101 -142 -127 -116 -3 4 12 27 33
52 22 25 40 49 40 54 0 15 70 120 104 157 17 19 65 56 106 82 72 47 90 56 90
43z m-2213 -20 c-3 -3 -12 -4 -19 -1 -8 3 -5 6 6 6 11 1 17 -2 13 -5z m1783
-234 c0 -33 -4 -60 -10 -60 -6 0 -10 27 -10 60 0 33 4 60 10 60 6 0 10 -27 10
-60z m488 -124 c2 -15 0 -35 -3 -44 -6 -15 -8 -15 -15 3 -5 11 -9 33 -9 48 -1
37 23 31 27 -7z m-2737 -194 c-7 -2 -18 1 -23 6 -8 8 -4 9 13 5 13 -4 18 -8
10 -11z m599 -103 c1 -180 -85 -408 -191 -503 -39 -36 -150 -96 -176 -96 -22
0 -25 21 -7 38 11 9 36 26 58 37 21 11 64 45 95 76 98 97 163 261 176 440 4
46 9 95 12 109 l6 25 13 -30 c7 -16 13 -60 14 -96z m-493 75 c-3 -3 -12 -4
-19 -1 -8 3 -5 6 6 6 11 1 17 -2 13 -5z m2757 -20 c4 -11 1 -14 -11 -12 -10 2
-19 11 -21 21 -4 21 24 13 32 -9z m-2707 10 c-3 -3 -12 -4 -19 -1 -8 3 -5 6 6
6 11 1 17 -2 13 -5z m310 -69 c1 -42 -1 -60 -6 -45 -6 22 -17 27 -78 40 -40 8
-78 21 -85 28 -6 6 -22 12 -34 12 -12 0 -36 6 -53 13 -29 12 -25 13 51 9 46
-2 101 1 123 6 76 19 80 16 82 -63z m1976 -158 c-14 -23 -23 14 -22 91 l1 87
13 -85 c7 -47 11 -88 8 -93z m-1205 101 c-5 -16 -84 -45 -94 -35 -4 4 1 16 11
27 21 23 90 29 83 8z m272 -29 c0 -20 -24 -26 -35 -9 -4 6 -4 17 -1 25 7 20
36 7 36 -16z m1136 -63 c-8 -17 -24 -40 -36 -51 -17 -16 -20 -16 -20 -2 0 9 5
19 11 23 6 3 21 27 32 53 15 32 22 41 25 28 2 -10 -3 -33 -12 -51z m-1890 9
c8 -34 -2 -44 -34 -36 -30 8 -42 43 -22 66 16 20 48 3 56 -30z m434 15 c11 -7
-5 -18 -65 -45 -44 -19 -89 -40 -100 -45 -170 -77 -185 -81 -185 -55 0 7 -7
18 -17 23 -21 12 -10 42 17 42 14 0 20 -7 20 -21 0 -11 3 -19 8 -17 4 2 52 25
107 52 154 75 186 85 215 66z m370 -70 c16 -30 12 -80 -6 -87 -40 -15 -78 54
-56 103 10 21 15 23 32 14 11 -6 24 -19 30 -30z m1441 -127 c6 -16 22 -71 35
-123 14 -52 27 -103 30 -112 4 -14 -1 -18 -24 -18 -59 0 -68 -62 -17 -122 14
-16 25 -37 25 -47 0 -10 9 -26 20 -36 20 -18 20 -17 21 31 l1 49 13 -70 c8
-38 21 -130 30 -204 8 -74 18 -145 21 -157 3 -12 1 -25 -5 -28 -32 -20 -264
198 -330 310 -45 76 -50 96 -24 92 13 -2 22 13 37 63 12 37 27 74 35 83 11 13
11 19 0 32 -10 13 -10 17 2 25 8 5 19 9 26 9 6 0 19 10 27 22 14 19 14 24 -1
49 -9 16 -29 33 -45 40 -21 9 -26 15 -19 27 7 13 118 109 129 111 1 1 7 -11
13 -26z m-456 -143 c3 -6 3 -19 0 -31 -5 -16 -10 -18 -21 -8 -18 15 -18 49 0
49 8 0 18 -5 21 -10z m-2457 -49 c3 -16 -1 -22 -10 -19 -7 3 -15 15 -16 27 -3
16 1 22 10 19 7 -3 15 -15 16 -27z m152 16 c0 -20 -22 -37 -47 -37 -27 0 -31
24 -5 39 24 15 52 13 52 -2z m-124 -68 c3 -6 1 -16 -5 -22 -9 -9 -14 -8 -21 3
-9 15 -4 30 10 30 5 0 12 -5 16 -11z m1002 -53 c7 -59 -42 -200 -112 -325 -14
-24 -30 -58 -36 -75 -9 -25 -13 -28 -20 -16 -18 29 -11 89 16 131 41 65 83
162 100 231 8 34 17 69 20 76 7 22 29 7 32 -22z m-171 -75 c-3 -27 -21 -77
-39 -112 -18 -34 -40 -76 -49 -93 -19 -36 -21 -36 -73 -12 -22 10 -62 23 -88
29 -26 7 -47 14 -46 18 6 13 137 124 185 157 41 27 58 33 79 28 21 -6 25 -4
21 8 -5 13 0 26 11 26 3 0 2 -22 -1 -49z m393 4 c19 -23 4 -47 -27 -43 -31 3
-44 35 -21 49 19 13 34 11 48 -6z m30 -50 c0 -8 -4 -15 -10 -15 -5 0 -10 7
-10 15 0 8 5 15 10 15 6 0 10 -7 10 -15z m119 -74 c8 -5 11 -16 8 -25 -5 -14
-11 -15 -27 -6 -11 6 -20 17 -20 25 0 17 18 19 39 6z m-933 -56 c7 -17 -12
-45 -30 -45 -23 0 -49 27 -43 44 8 21 65 22 73 1z m962 -16 c4 -19 -19 -31
-38 -19 -18 11 -4 42 17 38 10 -2 19 -10 21 -19z m237 -130 c-9 -51 -32 -108
-53 -133 -10 -10 -50 -33 -89 -52 -80 -36 -86 -47 -53 -101 10 -18 25 -56 33
-85 l14 -53 -67 -3 c-37 -1 -126 7 -201 20 -101 17 -176 23 -304 23 -130 1
-201 7 -300 24 -71 12 -164 26 -205 30 -41 4 -84 13 -95 20 l-20 13 20 -8 c11
-4 51 -9 88 -12 60 -4 72 -1 106 21 21 14 50 45 63 69 18 32 29 42 44 39 10
-2 40 -5 67 -8 43 -5 52 -10 99 -64 72 -83 101 -99 179 -99 87 0 130 27 306
188 140 130 142 131 170 118 15 -8 54 -17 86 -21 50 -6 58 -4 63 12 3 10 12
30 20 45 8 14 14 33 14 42 0 9 5 16 11 16 7 0 8 -14 4 -41z m1159 -26 c67 -61
90 -93 68 -93 -24 0 -162 125 -162 147 0 24 19 13 94 -54z m-2084 14 c0 -24
-3 -46 -6 -50 -3 -3 -21 4 -41 15 -29 18 -36 19 -44 7 -8 -12 -10 -12 -19 1
-7 12 -3 16 18 21 36 7 72 27 72 39 0 6 5 10 10 10 6 0 10 -19 10 -43z m-206
-32 c32 -66 12 -130 -33 -106 -11 6 -23 20 -26 31 -6 19 2 96 11 112 9 14 33
-4 48 -37z m2596 -180 c0 -8 -7 -15 -15 -15 -8 0 -15 7 -15 15 0 8 7 15 15 15
8 0 15 -7 15 -15z"/>
<path d="M668 2823 c7 -3 16 -2 19 1 4 3 -2 6 -13 5 -11 0 -14 -3 -6 -6z"/>
<path d="M1545 1570 c-3 -5 3 -10 14 -10 11 0 23 5 26 10 3 6 -3 10 -14 10
-11 0 -23 -4 -26 -10z"/>
<path d="M4210 454 c58 -15 299 -32 289 -20 -8 8 -250 36 -304 35 l-40 -1 55
-14z"/>
</g>
</svg>
